<svg width="425" height="465" viewBox="0 0 425 465" fill="none" xmlns="http://www.w3.org/2000/svg">
<path d="M182.654 1.52004C181.008 1.71127 179.829 3.20047 180.02 4.84625C180.211 6.49203 181.7 7.67117 183.346 7.47994L182.654 1.52004ZM421 189.501L423.982 189.828L421 189.501ZM250 305L247.922 307.165L250 305ZM268 261.001L269.27 258.283L269.201 258.25L269.13 258.222L268 261.001ZM0.5 441.5L26.279 464.64L33.429 430.745L0.5 441.5ZM183.346 7.47994C229.869 2.07418 291.982 17.9527 340.814 50.1914C389.625 82.4163 424.47 130.472 418.018 189.173L423.982 189.828C430.775 128.029 393.954 78.0847 344.12 45.1842C294.307 12.2976 230.798 -4.0742 182.654 1.52004L183.346 7.47994ZM418.018 189.173C412.153 242.532 379.495 279.622 343.644 298.986C325.709 308.673 307.076 313.866 290.743 314.471C274.354 315.079 260.655 311.071 252.078 302.836L247.922 307.165C258.095 316.93 273.648 321.109 290.965 320.467C308.339 319.823 327.865 314.328 346.495 304.265C383.774 284.13 417.866 245.469 423.982 189.828L418.018 189.173ZM252.078 302.836C239.041 290.321 236.197 277.216 239.324 269.374C240.856 265.532 243.871 262.7 248.308 261.476C252.824 260.231 259.051 260.599 266.87 263.779L269.13 258.222C260.497 254.71 252.874 253.993 246.712 255.693C240.471 257.414 235.981 261.56 233.751 267.151C229.355 278.176 233.962 293.762 247.922 307.165L252.078 302.836ZM266.73 263.719C279.913 269.878 287.582 286.265 287.189 307.994C286.798 329.566 278.389 355.598 260.458 379.505C224.724 427.147 150.954 466.545 27.4871 444.128L26.4153 450.032C151.667 472.772 227.905 432.905 265.257 383.105C283.869 358.292 292.772 331.059 293.188 308.102C293.601 285.303 285.57 265.898 269.27 258.283L266.73 263.719Z" fill="#629076"/>
</svg>
