<svg width="305" height="222" viewBox="0 0 305 222" fill="none" xmlns="http://www.w3.org/2000/svg">
<path d="M33.9393 5.64141C35.3981 4.8559 35.9439 3.03651 35.1584 1.5777C34.3729 0.118889 32.5535 -0.426928 31.0947 0.358586L33.9393 5.64141ZM11.0169 68.0641L8.58026 69.8142L11.0169 68.0641ZM146.517 68.0641L145.522 65.2338L146.517 68.0641ZM299.517 145.496L302.446 146.144L299.517 145.496ZM254.017 221.501L288.158 215.64L266.011 189.003L254.017 221.501ZM31.0947 0.358586C24.2478 4.04536 12.7338 12.7842 5.80442 24.8469C2.31486 30.9216 -0.0650392 37.9348 0.00135565 45.6154C0.0680063 53.3255 2.59912 61.4863 8.58026 69.8142L13.4536 66.3141C8.11986 58.8876 6.05602 51.9131 6.00113 45.5635C5.94599 39.1843 7.91795 33.2133 11.0071 27.8356C17.2352 16.9935 27.7861 8.95464 33.9393 5.64141L31.0947 0.358586ZM8.58026 69.8142C14.5868 78.1775 24.6442 82.8511 36.249 85.187C47.8954 87.5314 61.5312 87.6129 75.3066 86.4194C102.866 84.0317 131.615 76.4811 147.512 70.8944L145.522 65.2338C130.001 70.6886 101.75 78.1059 74.7887 80.4418C61.3039 81.6101 48.2993 81.4924 37.433 79.305C26.5249 77.1093 18.1971 72.9187 13.4536 66.3141L8.58026 69.8142ZM147.512 70.8944C194.747 54.2942 235.957 56.3003 263.25 70.6015C276.869 77.738 287.018 87.9223 292.862 100.417C298.704 112.907 300.339 127.909 296.588 144.847L302.446 146.144C306.445 128.083 304.768 111.711 298.297 97.8753C291.829 84.0452 280.665 72.9536 266.034 65.2869C236.826 49.9818 193.787 48.272 145.522 65.2338L147.512 70.8944ZM296.588 144.847C290.556 172.09 281.01 190.621 272.353 202.472L277.198 206.011C286.376 193.446 296.247 174.141 302.446 146.144L296.588 144.847Z" fill="#629076"/>
</svg>
