<svg width="310" height="209" viewBox="0 0 310 209" fill="none" xmlns="http://www.w3.org/2000/svg">
<path d="M32.0395 5.88531C33.4512 5.01797 33.8925 3.17044 33.0251 1.75875C32.1578 0.347052 30.3103 -0.0942312 28.8986 0.773113L32.0395 5.88531ZM12.7105 69.5125L10.3775 71.3985L12.7105 69.5125ZM147.99 61.7933L146.836 59.0243L147.99 61.7933ZM305.153 130.383L308.115 130.864L305.153 130.383ZM264.057 208.857L297.809 201.06L274.18 175.729L264.057 208.857ZM28.8986 0.773113C22.2728 4.84395 11.2753 14.2245 5.04445 26.6624C1.90662 32.9261 -0.0698832 40.0635 0.433951 47.7277C0.939726 55.4215 3.93163 63.4249 10.3775 71.3985L15.0435 67.6265C9.29536 60.5159 6.83756 53.6703 6.42103 47.3342C6.00256 40.9685 7.63116 34.8948 10.409 29.3498C16.0093 18.1705 26.0851 9.54369 32.0395 5.88531L28.8986 0.773113ZM10.3775 71.3985C16.8508 79.4061 27.158 83.4991 38.877 85.1702C50.6381 86.8473 64.2564 86.1518 77.9414 84.1755C105.32 80.2217 133.592 71.0455 149.145 64.5623L146.836 59.0243C131.651 65.3544 103.868 74.369 77.0838 78.2371C63.6875 80.1717 50.6973 80.795 39.724 79.2303C28.7086 77.6595 20.1555 73.9501 15.0435 67.6265L10.3775 71.3985ZM149.145 64.5623C195.358 45.2981 236.616 44.9533 264.678 57.6765C278.682 64.0256 289.395 73.6151 295.941 85.7568C302.485 97.8935 304.972 112.778 302.192 129.902L308.115 130.864C311.078 112.604 308.471 96.3536 301.222 82.9094C293.977 69.4703 282.2 59.0326 267.156 52.2119C237.123 38.5955 194.056 39.3405 146.836 59.0243L149.145 64.5623ZM302.192 129.902C297.721 157.445 289.247 176.489 281.279 188.814L286.318 192.072C294.766 179.004 303.52 159.168 308.115 130.864L302.192 129.902Z" fill="#629076"/>
</svg>
