<svg width="220" height="118" viewBox="0 0 220 118" fill="none" xmlns="http://www.w3.org/2000/svg">
<path d="M-55.6188 78.9921C-56.9925 78.8539 -57.994 77.6282 -57.8558 76.2544C-57.7175 74.8805 -56.4919 73.8788 -55.1182 74.0169L-55.6188 78.9921ZM62.1445 9.13869L64.5433 8.43475L62.1445 9.13869ZM122.757 26.7085L122.581 29.2025L122.581 29.2025L122.757 26.7085ZM205.453 117.587L190.896 92.659L219.762 92.513L205.453 117.587ZM-55.1182 74.0169C-30.8056 76.4618 -0.799928 64.1824 22.7457 48.901C34.4661 41.2944 44.4126 33.054 51.0889 25.7525C54.4332 22.095 56.8853 18.7506 58.3459 15.9059C59.8505 12.9755 60.086 11.0028 59.7457 9.84262L64.5433 8.43475C65.4307 11.4602 64.4877 14.89 62.7935 18.1897C61.0553 21.5751 58.2881 25.2884 54.7784 29.1267C47.7467 36.8168 37.4466 45.3206 25.4671 53.0954C1.61309 68.5769 -29.5931 81.6092 -55.6188 78.9921L-55.1182 74.0169ZM59.7457 9.84262C58.9481 7.12336 56.5021 5.5212 52.1524 5.30688C47.8069 5.09277 42.2679 6.37935 36.9488 8.7507C31.6358 11.1193 26.8424 14.4367 23.8773 18.0048C20.9065 21.5798 20.1011 24.9258 21.461 27.8791L16.9197 29.971C14.4199 24.5425 16.4401 19.1316 20.0322 14.8091C23.6299 10.4797 29.1368 6.75901 34.9134 4.1837C40.6839 1.61111 47.0238 0.0478613 52.3988 0.312696C57.7695 0.577319 62.8855 2.78287 64.5433 8.43475L59.7457 9.84262ZM21.461 27.8791C22.7279 30.6304 25.3998 32.0956 30.7156 32.3194C36.0729 32.545 43.2492 31.4532 52.2929 29.9116C70.1965 26.8597 94.5289 22.218 122.932 24.2146L122.581 29.2025C94.8741 27.2549 71.1308 31.7727 53.1326 34.8407C44.2253 36.3591 36.4941 37.5674 30.5049 37.3152C24.4741 37.0613 19.3602 35.271 16.9197 29.971L21.461 27.8791ZM122.932 24.2146C132.806 24.9086 152.17 28.0045 169.996 38.1535C187.916 48.3552 204.33 65.7328 207.824 94.7918L202.86 95.3892C199.594 68.2281 184.376 52.0938 167.523 42.499C150.577 32.8516 132.028 29.8665 122.581 29.2025L122.932 24.2146Z" fill="#629076"/>
</svg>
