<svg width="341" height="372" viewBox="0 0 341 372" fill="none" xmlns="http://www.w3.org/2000/svg">
<path d="M296.08 1.06236C295.01 0.189839 293.435 0.349996 292.562 1.42007C291.69 2.49015 291.85 4.06494 292.92 4.93746L296.08 1.06236ZM336.978 69.9203L334.497 70.2216L336.978 69.9203ZM249.145 133.378L250.846 131.545L249.145 133.378ZM118.125 268.958L118.683 266.522L118.125 268.958ZM60.7406 363.62L40.051 343.488L32.9615 371.472L60.7406 363.62ZM292.92 4.93746C309.054 18.0923 318.715 28.7452 324.708 38.8788C330.673 48.9663 333.098 58.7013 334.497 70.2216L339.46 69.6191C338.013 57.6959 335.449 47.2206 329.012 36.3338C322.601 25.4929 312.446 14.4073 296.08 1.06236L292.92 4.93746ZM334.497 70.2216C340.879 122.806 319.097 157.656 290.627 176.586C261.921 195.673 226.657 198.479 206.088 187.298L203.7 191.691C226.337 203.996 263.612 200.552 293.396 180.749C323.416 160.789 346.073 124.108 339.46 69.6191L334.497 70.2216ZM206.088 187.298C196 181.815 190.999 173.445 189.705 164.564C188.398 155.601 190.86 146.004 195.968 138.294C201.072 130.588 208.676 124.969 217.479 123.635C226.212 122.311 236.588 125.135 247.444 135.21L250.846 131.545C239.123 120.666 227.278 117.092 216.729 118.691C206.251 120.28 197.513 126.906 191.799 135.532C186.088 144.155 183.254 154.977 184.757 165.285C186.272 175.677 192.185 185.432 203.7 191.691L206.088 187.298ZM247.444 135.21C257.238 144.299 261.808 158.578 261.059 174.814C260.311 191.026 254.252 208.93 243.135 224.839C220.975 256.551 178.75 280.287 118.683 266.522L117.566 271.395C179.668 285.627 223.935 261.044 247.234 227.703C258.846 211.085 265.259 192.279 266.054 175.044C266.848 157.833 262.034 141.928 250.846 131.545L247.444 135.21ZM118.683 266.522C63.7629 253.936 24.3227 269.503 8.11182 292.661C-0.0105442 304.265 -2.23864 317.772 2.62475 330.22C7.47509 342.634 19.1977 353.544 38.0787 360.444L39.7949 355.748C21.8447 349.188 11.4678 339.114 7.28189 328.4C3.10905 317.72 4.90809 305.957 12.208 295.529C26.8417 274.623 63.8265 259.08 117.566 271.395L118.683 266.522Z" fill="#629076"/>
</svg>
