<svg width="311" height="254" viewBox="0 0 311 254" fill="none" xmlns="http://www.w3.org/2000/svg">
<path d="M239.456 0.0419905C238.099 -0.210005 236.794 0.686202 236.542 2.04372C236.29 3.40124 237.186 4.70601 238.544 4.95801L239.456 0.0419905ZM305.03 122L302.604 121.397L305.03 122ZM226.531 143L224.289 144.106L226.531 143ZM98.5 203L99.8899 200.922L98.5 203ZM33 254L21.7976 227.395L4.35798 250.399L33 254ZM238.544 4.95801C244.987 6.154 253.212 10.1109 261.753 16.5199C270.256 22.9011 278.918 31.599 286.255 42.072C300.931 63.0195 310.188 90.8695 302.604 121.397L307.457 122.603C315.473 90.3305 305.631 61.0137 290.35 39.203C282.709 28.2968 273.678 19.2177 264.754 12.5207C255.867 5.85158 246.93 1.42934 239.456 0.0419905L238.544 4.95801ZM302.604 121.397C293.085 159.717 268.696 178.142 243.916 183.749C218.86 189.419 193.663 181.979 182.429 168.873L178.632 172.127C191.398 187.02 218.702 194.581 245.02 188.626C271.615 182.608 297.476 162.783 307.457 122.603L302.604 121.397ZM182.429 168.873C176.957 162.489 175.734 155.491 177.158 149.109C178.6 142.645 182.792 136.704 188.319 132.746C193.842 128.79 200.494 126.952 206.812 128.324C213.061 129.68 219.438 134.278 224.289 144.106L228.772 141.894C223.4 131.006 215.916 125.184 207.873 123.438C199.899 121.706 191.829 124.082 185.408 128.681C178.991 133.276 174.016 140.229 172.278 148.02C170.522 155.892 172.104 164.51 178.632 172.127L182.429 168.873ZM224.289 144.106C228.618 152.878 228.049 163.904 223.236 174.968C218.431 186.011 209.484 196.849 197.533 204.966C173.738 221.127 138.086 226.47 99.8899 200.922L97.1101 205.078C137.041 231.786 174.904 226.38 200.342 209.102C213.009 200.499 222.608 188.945 227.82 176.963C233.024 165.003 233.943 152.372 228.772 141.894L224.289 144.106ZM99.8899 200.922C65.8099 178.127 34.7145 177.625 16.5654 188.528C7.476 193.988 1.6538 202.344 0.709254 212.043C-0.234653 221.735 3.73442 232.301 13.2751 242.147L16.866 238.668C8.07912 229.599 4.9175 220.416 5.68571 212.528C6.45328 204.646 11.186 197.592 19.1402 192.814C35.0785 183.239 64.0254 182.948 97.1101 205.078L99.8899 200.922Z" fill="#629076"/>
</svg>
