<svg width="192" height="218" viewBox="0 0 192 218" fill="none" xmlns="http://www.w3.org/2000/svg">
<path d="M1.33805 4.30245C0.476508 3.22361 0.652794 1.65059 1.73181 0.789017C2.81082 -0.0725589 4.38395 0.103563 5.2455 1.1824L1.33805 4.30245ZM133.612 39.6759L135.792 40.8991L133.612 39.6759ZM163.421 95.2991L161.515 96.9171L163.421 95.2991ZM156.25 217.962L163.898 190.127L184.182 210.665L156.25 217.962ZM5.2455 1.1824C20.4936 20.2762 50.2502 33.1474 77.6373 39.3008C91.2698 42.3638 104.116 43.7154 114.004 43.385C118.957 43.2195 123.062 42.6348 126.118 41.6906C129.265 40.7179 130.84 39.5071 131.432 38.4528L135.792 40.8991C134.249 43.6486 131.138 45.3721 127.594 46.4674C123.958 47.5911 119.368 48.2083 114.17 48.382C103.756 48.73 90.4745 47.3097 76.5406 44.179C48.7948 37.945 17.6606 24.7416 1.33805 4.30245L5.2455 1.1824ZM131.432 38.4528C132.819 35.9815 132.254 33.1125 129.367 29.8524C126.482 26.5955 121.69 23.5342 116.276 21.3886C110.868 19.2454 105.145 18.137 100.521 18.5112C95.8875 18.8861 92.9319 20.6493 91.7709 23.6863L87.1003 21.9014C89.2344 16.3191 94.5157 13.981 100.118 13.5277C105.729 13.0737 112.239 14.4103 118.118 16.7405C123.992 19.0683 129.542 22.5088 133.11 26.5373C136.675 30.5626 138.675 35.7626 135.792 40.8991L131.432 38.4528ZM91.7709 23.6863C90.6893 26.5155 91.5094 29.4504 95.0655 33.4079C98.6494 37.3963 104.447 41.7645 111.871 47.1534C126.57 57.8219 146.899 71.9758 165.327 93.6811L161.515 96.9171C143.539 75.7438 123.71 61.9245 108.934 51.1997C101.621 45.892 95.3526 41.2085 91.346 36.7496C87.3115 32.2598 85.0167 27.3516 87.1003 21.9014L91.7709 23.6863ZM165.327 93.6811C171.734 101.227 183.056 117.237 188.262 137.079C193.494 157.024 192.543 180.909 174.207 203.721L170.309 200.59C187.448 179.267 188.346 157.106 183.425 138.348C178.477 119.486 167.644 104.136 161.515 96.9171L165.327 93.6811Z" fill="#629076"/>
</svg>
