<?xml version="1.0" encoding="UTF-8" standalone="no"?>
<!DOCTYPE svg PUBLIC "-//W3C//DTD SVG 1.1//EN" "http://www.w3.org/Graphics/SVG/1.1/DTD/svg11.dtd">
<svg width="100%" height="100%" viewBox="0 0 3534 3049" version="1.1" xmlns="http://www.w3.org/2000/svg" xmlns:xlink="http://www.w3.org/1999/xlink" xml:space="preserve" xmlns:serif="http://www.serif.com/" style="fill-rule:evenodd;clip-rule:evenodd;stroke-linecap:round;stroke-miterlimit:1.5;">
    <g id="whiteLogo" opacity="0.1">
        <g>
            <g>
                <path id="whiteLetterS" d="M292.521,1805.08C243.671,1812.14 194.582,1817.79 145.388,1819.53C110.451,1820.77 75.005,1820.57 40.455,1813.42C29.651,1811 18.114,1808.32 8.306,1802.02C4.681,1799.69 -0,1795.95 -0,1790.32C-0,1759.14 12.27,1728.78 24.895,1702.45C32.049,1687.53 39.935,1672.39 50.263,1660.36C55.243,1654.56 61.386,1648.81 68.462,1647.77C76.587,1646.58 85.341,1648.49 93.39,1649.57C108.46,1651.59 123.48,1654.16 138.481,1656.83C171.602,1662.71 205.721,1666.32 239.099,1661.44C249.885,1659.86 260.667,1658.11 271.358,1655.75C278.632,1654.14 286.145,1652.49 293.039,1649.14C299.889,1645.81 306.006,1639.69 306.006,1630.07C306.006,1618.07 292.77,1614.46 285.26,1612.86C268.204,1609.21 250.634,1609.28 233.394,1610.36C211.108,1611.74 188.756,1611.29 166.488,1609.64C144.034,1607.98 121.63,1604.74 99.582,1599.28C80.015,1594.43 61.813,1583.4 47.716,1566.1C35.07,1550.57 29.071,1529 26.97,1507.72C25.339,1491.21 26.817,1474.58 29.045,1458.26C33.428,1441.5 38.913,1425.31 46.16,1410.05C56.569,1388.14 71.483,1369.94 88.69,1355.81C114.316,1334.76 144.66,1321.54 173.749,1309.6C215.583,1292.43 259.118,1281.77 302.894,1275.16C342.7,1269.15 382.644,1263.79 422.703,1261.04C447.861,1259.31 473.243,1257.9 498.426,1259.76C513.544,1260.88 528.814,1262.67 543.549,1267.09C545.916,1267.78 548.269,1268.53 550.6,1269.38C552.416,1270.05 554.219,1270.77 555.998,1271.57C563.184,1274.82 573.631,1280.69 573.631,1291.72C573.631,1322.32 558.721,1351.55 544.586,1375.58C536.232,1389.79 527.291,1404.08 516.386,1415.58C511.356,1420.88 505.258,1426.48 498.426,1427.5C488.712,1428.94 478.702,1428.15 468.97,1427.52C454.038,1426.55 439.136,1424.9 424.259,1423.09C396.657,1419.74 367.943,1416.06 340.237,1420.19C337.224,1420.64 334.219,1421.16 331.228,1421.79C328.558,1422.34 325.899,1422.98 323.261,1423.73C321.246,1424.31 319.243,1424.95 317.262,1425.68C308.757,1428.82 296.67,1434.94 296.67,1447.82C296.67,1456.43 305.798,1459.51 311.286,1460.96C312.663,1461.32 314.05,1461.63 315.443,1461.89C316.996,1462.18 318.557,1462.42 320.12,1462.63C322.153,1462.89 324.192,1463.09 326.233,1463.24C349.89,1465.01 373.594,1465.84 397.289,1466.35C425.209,1466.95 453.097,1469.48 480.792,1473.81C506.822,1477.88 531.905,1489.37 552.366,1509.58C572.568,1529.53 581.929,1558.88 581.929,1590.05C581.929,1602.69 580.755,1615.34 578.216,1627.61C563.972,1696.41 509.957,1736.44 458.771,1760.15C450.089,1764.17 441.292,1767.83 432.42,1771.18C421.105,1775.47 409.666,1779.27 398.152,1782.68C383.002,1787.18 367.72,1791.03 352.367,1794.36C332.514,1798.67 312.547,1802.18 292.521,1805.08Z" style="fill:rgb(232,232,232);fill-rule:nonzero;"/>
                <path id="whiteLetterT" d="M1037.42,1681.43C1029.09,1689.38 1018.2,1693.42 1008.14,1696.75C989.916,1702.78 971.086,1706.12 952.36,1708.83C915.931,1714.1 879.123,1718.23 842.406,1717.19C814.203,1716.39 786.119,1710.65 759.421,1699.52C750.692,1695.79 742.314,1690.81 734.653,1684.49C693.54,1650.59 683.698,1586.36 683.698,1530L683.698,1391.98C666.409,1394.55 649.121,1397.12 631.832,1399.7C622.471,1401.09 616.035,1391.3 612.124,1382.3C604.981,1365.86 603.825,1346.07 603.825,1327.85C603.825,1305.48 607.956,1283.28 616.792,1263.58C623.935,1247.65 635.049,1233.86 650.504,1231.53C661.569,1229.86 672.633,1228.19 683.698,1226.52L683.698,1119.46C683.698,1105.65 694.973,1095.46 703.555,1088.94C705.894,1087.16 708.291,1085.49 710.725,1083.91C713.924,1081.83 717.185,1079.9 720.485,1078.07C724.196,1076.01 727.956,1074.09 731.746,1072.26C736.605,1069.91 741.514,1067.72 746.455,1065.64C786.317,1048.87 827.488,1036.42 869.376,1030.02C875.868,1029.03 882.375,1028.17 888.896,1027.51C894.255,1026.97 899.624,1026.56 904.999,1026.35C909.032,1026.19 913.069,1026.14 917.103,1026.24C920.062,1026.32 923.019,1026.48 925.97,1026.75C928.343,1026.97 930.711,1027.26 933.068,1027.65C946.095,1029.82 963.771,1036.05 963.771,1055.54L963.771,1184.27C989.358,1180.41 1014.95,1176.55 1040.53,1172.69C1042.51,1172.39 1044.51,1172.36 1046.48,1172.71C1060.89,1175.26 1064.88,1196.73 1066.39,1211.12C1066.75,1214.59 1067.01,1218.07 1067.18,1221.55C1067.41,1226.12 1067.5,1230.71 1067.5,1235.29C1067.5,1260.27 1064.66,1285.95 1055.57,1308.62C1049.48,1323.84 1039.74,1338.98 1024.97,1341.18C1004.57,1344.21 984.171,1347.25 963.771,1350.29L963.771,1512.75C963.771,1515.8 964.062,1518.85 964.755,1521.78C967.747,1534.41 977.758,1540.66 987.629,1543.44C1001.31,1547.29 1015.62,1549.56 1029.64,1547.5C1038.41,1546.22 1048.65,1547.84 1051.94,1559.35C1055.97,1573.43 1056.09,1589.34 1056.09,1604.07C1056.09,1621.67 1055.18,1639.92 1050.51,1656.72C1047.91,1666.05 1043.91,1675.24 1037.42,1681.43Z" style="fill:rgb(232,232,232);fill-rule:nonzero;"/>
                <path id="whiteLetterU" d="M1338.24,1653.95C1303.23,1659.01 1267,1661.45 1232.11,1653.84C1212.11,1649.48 1191.94,1641.4 1175.9,1625.79C1142.09,1592.89 1133.15,1534.88 1130.56,1485.35C1129.99,1474.51 1129.74,1463.65 1129.74,1452.79L1129.74,1210.83C1129.74,1202.82 1137.58,1196.73 1142.31,1193.09C1157.18,1181.63 1174.39,1174.31 1190.94,1167.36C1232.61,1149.87 1275.83,1138.09 1319.57,1131.49C1325.77,1130.55 1332,1129.75 1338.23,1129.15C1342.98,1128.69 1347.74,1128.35 1352.51,1128.17C1356.4,1128.03 1360.3,1127.99 1364.2,1128.11C1367.06,1128.19 1369.92,1128.36 1372.78,1128.65C1387.4,1130.09 1409.81,1135.28 1409.81,1158.04L1409.81,1384.76C1409.81,1403.18 1410.11,1421.63 1411.18,1440.01C1412.01,1454.23 1413.15,1468.62 1416.04,1482.48C1418.78,1495.64 1425.54,1506.65 1437.16,1508.71C1440.47,1509.3 1443.84,1509.21 1447.16,1508.73C1460.94,1506.71 1480.35,1500.61 1480.35,1479.76L1480.35,1158.15C1480.35,1149.79 1488.62,1143.43 1493.56,1139.72C1509.2,1127.94 1527.29,1120.59 1544.66,1113.62C1590.12,1095.4 1637.22,1083.57 1684.7,1076.41C1689.91,1075.62 1695.13,1074.95 1700.36,1074.46C1704.97,1074.03 1709.59,1073.73 1714.21,1073.63C1717.41,1073.56 1720.61,1073.59 1723.82,1073.75C1726.16,1073.87 1728.51,1074.07 1730.84,1074.36C1743.27,1075.93 1760.42,1081.21 1760.42,1099.94L1760.42,1561.56C1760.42,1567.18 1752.81,1570.53 1749.64,1572.13C1748.46,1572.73 1747.27,1573.29 1746.07,1573.83C1729.68,1581.11 1712.17,1585.06 1695.07,1588.94C1652.43,1598.62 1609.53,1606.69 1566.45,1612.92C1550.14,1615.28 1533.23,1617.82 1516.78,1616.07C1515.6,1615.94 1514.42,1615.78 1513.25,1615.57C1509.82,1614.96 1502.56,1613.66 1502.13,1607.92C1498.68,1589.07 1495.22,1570.21 1491.76,1551.35C1489,1551.75 1486.23,1552.15 1483.46,1552.56C1476.79,1576.52 1462.83,1596 1446.12,1610.68C1433.23,1622.06 1417.95,1629.53 1403.07,1636.1C1382.2,1645.33 1360.27,1650.77 1338.24,1653.95Z" style="fill:rgb(232,232,232);fill-rule:nonzero;"/>
                <path id="whiteLetterD" d="M2028.05,1554.25C2004.32,1557.68 1980.22,1558.35 1956.48,1554.71C1937.97,1551.88 1919.19,1547.46 1902.02,1538.35C1887.82,1530.81 1875.28,1519.34 1865.19,1505.09C1855.94,1492.03 1847.54,1477.88 1841.34,1462.35C1834.77,1445.93 1831.24,1427.84 1828.89,1409.9C1824.14,1374.36 1822.66,1338.23 1822.66,1302.27C1822.66,1231.56 1836.24,1158.89 1875.57,1104.61C1912.82,1053.18 1965.51,1025.95 2020.79,1017.61C2030.17,1016.2 2039.59,1015.06 2049.02,1014.29C2056.76,1013.67 2064.51,1013.29 2072.26,1013.25C2101.03,1013.09 2132.72,1016.67 2157.71,1035.67C2163.79,1040.62 2168.8,1047.26 2172.24,1055.1C2175,1054.69 2177.77,1054.27 2180.53,1053.86C2178.2,1028.38 2175.87,1002.91 2173.53,977.438C2171.72,945.287 2169.9,913.136 2168.09,880.985C2168.09,872.569 2175.06,865.805 2180.01,861.393C2193.84,849.093 2210.34,840.959 2226.18,833.38C2266.43,814.114 2308.79,801.811 2351.69,795.248C2372.08,792.129 2393.14,789.769 2413.64,792.795C2423.4,794.235 2434.24,796.935 2441.94,804.936C2445.96,809.327 2449.2,815.121 2449.2,821.902L2449.2,1463.56C2449.2,1467.98 2442.95,1470.66 2440.41,1471.98C2429.2,1477.76 2416.95,1481.01 2405.12,1484.22C2400.63,1485.44 2396.13,1486.59 2391.63,1487.7C2354.89,1496.77 2317.87,1504.24 2280.64,1509.63C2266.77,1511.63 2252.9,1513.53 2238.99,1514.96C2230.12,1515.87 2221.08,1516.95 2212.17,1516.37C2206.69,1516.02 2198.29,1516.38 2193.5,1512.32C2190.57,1509.83 2189.37,1505.38 2188.83,1501.28C2186.07,1484.57 2183.3,1467.85 2180.53,1451.13C2177.77,1451.54 2175,1451.94 2172.24,1452.34C2165.44,1476.29 2151.36,1495.81 2134.89,1510.9C2104.88,1538.99 2064.84,1548.93 2028.05,1554.25ZM2144.23,1405.99C2155.32,1404.37 2164,1396.21 2169.12,1384.34L2169.12,1143.84C2169.12,1136.52 2163.34,1133.07 2158.23,1131.51C2152.01,1129.61 2145.46,1128.46 2139.04,1129.42C2121.86,1131.99 2114.86,1157.11 2111.27,1174.37C2110.46,1178.23 2109.77,1182.12 2109.16,1186.03C2108.4,1190.84 2107.76,1195.68 2107.22,1200.54C2106.49,1207.05 2105.92,1213.59 2105.46,1220.14C2104.91,1228.1 2104.53,1236.07 2104.26,1244.05C2103.92,1254.39 2103.77,1264.75 2103.77,1275.1C2103.77,1296.25 2104.25,1317.49 2106.24,1338.52C2107.54,1352.3 2109.32,1366.47 2113.63,1379.41C2117.71,1391.67 2124.78,1403.64 2136.25,1405.87C2138.89,1406.39 2141.58,1406.38 2144.23,1405.99Z" style="fill:rgb(232,232,232);fill-rule:nonzero;"/>
                <path id="whiteLetterI" d="M2807.07,964.269L2807.07,1411.71C2807.07,1416.46 2799.9,1419.27 2797.23,1420.57C2785.77,1426.17 2773.43,1429.44 2761.4,1432.66C2756.76,1433.9 2752.09,1435.08 2747.43,1436.22C2706.91,1446.09 2666.05,1453.88 2625.02,1459.82C2608.71,1462.18 2592.37,1464.36 2575.99,1465.82C2565.48,1466.75 2554.64,1467.91 2544.11,1466.54C2537.37,1465.67 2525.96,1463.2 2525.96,1452.44L2525.96,1022.77C2525.96,1014.29 2533.01,1007.46 2537.99,1003.02C2551.94,990.577 2568.59,982.311 2584.57,974.601C2625.6,954.801 2668.9,942.433 2712.68,935.836C2719.17,934.858 2725.67,934.026 2732.2,933.405C2737.16,932.932 2742.14,932.581 2747.13,932.404C2751.2,932.259 2755.28,932.23 2759.36,932.364C2762.35,932.463 2765.35,932.65 2768.33,932.957C2781.73,934.334 2801.84,938.19 2806.24,956.771C2806.82,959.205 2807.07,961.74 2807.07,964.269ZM2666,747.159C2701.05,741.796 2738.66,737.944 2773.36,748.424C2791.19,753.808 2806.15,766.701 2810.65,789.088C2811.79,794.768 2812.26,800.629 2812.26,806.469C2812.26,812.246 2811.7,818.025 2810.52,823.625C2803.45,857.095 2775.99,875.988 2751.2,887.292C2746.59,889.389 2741.93,891.29 2737.23,893.034C2731.55,895.142 2725.81,897.021 2720.04,898.721C2712.43,900.96 2704.76,902.888 2697.06,904.582C2687.1,906.775 2677.08,908.577 2667.03,910.095C2657.72,911.501 2648.39,912.664 2639.03,913.484C2631.32,914.16 2623.58,914.603 2615.85,914.719C2610.05,914.805 2604.26,914.707 2598.47,914.36C2594.26,914.107 2590.05,913.721 2585.85,913.165C2561.37,909.918 2530.95,899.852 2523.55,867.196C2522.33,861.807 2521.81,856.208 2521.81,850.626C2521.81,844.869 2522.36,839.111 2523.53,833.53C2530.55,800.223 2557.78,781.336 2582.44,770.012C2587,767.915 2591.63,766.013 2596.3,764.268C2601.94,762.158 2607.64,760.276 2613.37,758.573C2620.92,756.33 2628.53,754.397 2636.18,752.696C2646.07,750.496 2656.02,748.685 2666,747.159Z" style="fill:rgb(232,232,232);fill-rule:nonzero;"/>
                <path id="whiteLetterO" d="M3204.36,1384.24C3160.06,1390.64 3115.17,1394.72 3070.55,1391.75C3035.75,1389.43 3001.07,1381.11 2968.89,1364.62C2957.54,1359.05 2946.69,1351.93 2936.81,1343.14C2930.07,1337.14 2923.79,1330.37 2918.1,1322.94C2883.75,1278.07 2874.5,1214.09 2874.5,1154.88C2874.5,1090.87 2890.01,1028.12 2925.42,979.706C2938.74,961.502 2954.24,945.776 2970.97,932.384C3040.28,877.271 3122.92,851.248 3204.36,838.955C3239.13,833.707 3274.09,829.411 3309.13,828.162C3338.82,827.104 3368.57,830 3397.82,836.257C3423.39,841.727 3449.21,851.44 3470.43,870.14C3490.8,888.096 3505.27,914.067 3515.55,941.615C3529.04,977.756 3533.19,1018.18 3533.19,1057.53C3533.19,1116.47 3520.14,1174.61 3491.02,1222.33C3477.74,1244.09 3461.68,1263.2 3443.98,1279.65C3375.39,1343.4 3288.95,1372.01 3204.36,1384.24ZM3168.05,1211.75C3170.1,1220.69 3172.39,1229.74 3175.91,1238.01C3177.6,1241.95 3179.77,1246.51 3183.1,1248.75C3189.34,1252.96 3196.93,1253.11 3203.84,1252.1C3211.22,1251.02 3218.7,1248.38 3224.59,1242.68C3227.89,1239.49 3229.97,1234.43 3231.65,1229.85C3235,1220.75 3237.18,1211 3239.11,1201.34C3244.54,1174.1 3245.85,1145.72 3245.85,1117.78C3245.85,1092.4 3245.73,1066.78 3243.26,1041.54C3241.93,1027.94 3240.42,1014.07 3237.03,1000.96C3235.03,993.182 3232.08,985.355 3227.18,979.621C3221.06,972.763 3213.12,969.865 3204.88,971.096C3197.25,972.236 3189.67,975.211 3183.61,981.11C3180.14,984.486 3177.9,989.659 3176.06,994.455C3172.51,1003.72 3170.14,1013.66 3168.05,1023.54C3161.52,1054.44 3160.79,1087.22 3160.79,1118.95C3160.79,1149.71 3161.22,1181.89 3168.05,1211.75Z" style="fill:rgb(232,232,232);fill-rule:nonzero;"/>
                <path id="whiteLetterG" d="M765.175,2274.06L765.175,2222.69C762.409,2223.08 759.643,2223.46 756.877,2223.84C752.62,2228.97 747.378,2233.01 742.354,2236.92C736.3,2241.64 729.345,2244.85 722.697,2248.07C712.249,2253.14 701.641,2257.72 691.008,2262.18C661.179,2274.67 629.998,2282.11 598.687,2286.43C570.074,2290.38 540.491,2291.89 512.072,2285.15C492.92,2280.61 473.151,2273.62 457.095,2259.67C442.977,2247.41 432.826,2229.79 425.975,2210.62C410.678,2167.61 408.341,2118.2 408.341,2071.99C408.341,2011.26 423.284,1951.51 459.169,1907.75C475.356,1887.32 496.647,1873.27 517.777,1861.84C544.248,1847.53 572.522,1838.53 601.28,1834.4C625.586,1830.91 650.533,1828.66 674.929,1832.22C689.602,1834.36 705.298,1837.32 718.496,1845.89C727.157,1852.04 735.777,1858.9 742.818,1867.66C746.646,1872.43 750.192,1878.02 751.69,1884.52C752.036,1887.13 752.382,1889.74 752.727,1892.34C755.493,1891.95 758.26,1891.55 761.026,1891.16C764.138,1879.2 767.25,1867.24 770.362,1855.28C772.049,1848.99 776.196,1844.09 780.482,1840.26C789.008,1832.63 799.2,1827.77 809.154,1823.65C826.598,1816.42 844.709,1811.59 862.798,1807.44C886.464,1802.02 910.343,1797.99 934.256,1794.56C953.621,1791.78 973.504,1789.38 993.005,1791.44C1001.01,1792.29 1010.94,1793.61 1017.24,1800.41C1021.7,1805.51 1025.94,1811.63 1027.61,1818.92C1029.66,1827.82 1029.69,1837.47 1029.69,1846.61L1029.69,2218.89C1029.69,2235.21 1028.22,2251.55 1025,2267.4C1014.53,2319.08 985.517,2360.25 949.816,2389.71C920.873,2413.6 888.214,2430.35 854.916,2443C842.325,2447.79 829.548,2451.5 816.828,2455.7C806.517,2459.1 796.292,2462.7 785.868,2465.6C762.64,2472.04 739.064,2476.56 715.384,2479.71C683.396,2483.96 651.281,2487.19 619.108,2488.36C604.128,2488.9 589.202,2488.52 574.223,2488.41C547.034,2488.22 518.853,2488.09 492.363,2479.43C490.322,2478.74 488.292,2477.99 486.285,2477.16C479.22,2474.24 466.43,2468.68 466.43,2457.37C466.43,2447.47 468.954,2437.52 471.487,2428.22C475.688,2412.8 481.046,2397.84 486.658,2383.11C492.385,2368.08 498.811,2352.61 508.006,2340.19C512.309,2334.39 517.857,2328.5 524.52,2327.59C528.201,2327.08 532.083,2327.69 535.752,2327.99C541.696,2328.48 547.632,2329.11 553.564,2329.77C596.044,2333.44 639.247,2335.66 681.672,2329.82C695.849,2327.87 710.079,2325.41 723.934,2321.19C732.206,2318.66 740.768,2315.6 748.059,2310.07C758.646,2302.04 765.175,2289.37 765.175,2274.06ZM723.683,2168.25C730.548,2167.29 737.215,2164.29 742.354,2158.56C746.312,2154.15 749.615,2148.37 749.615,2141.61L749.615,1959.2C746.631,1946.25 736.995,1942.4 726.795,1943.85C703.799,1947.11 694.993,1977.39 691.226,2001.18C690.484,2005.87 689.888,2010.59 689.4,2015.32C688.761,2021.54 688.309,2027.79 687.993,2034.04C687.555,2042.7 687.377,2051.38 687.377,2060.05C687.377,2086.98 688.802,2115.65 697.231,2140.96C701.728,2154.47 709.903,2170.17 723.683,2168.25Z" style="fill:rgb(232,232,232);fill-rule:nonzero;"/>
                <path id="whiteLetterR" d="M1390.71,1957.46L1390.71,2218.03C1390.71,2222.45 1384.28,2225.07 1381.77,2226.32C1370.33,2232.02 1357.88,2235.17 1345.84,2238.31C1341.27,2239.5 1336.69,2240.62 1332.1,2241.71C1291.92,2251.21 1251.41,2258.59 1210.74,2264.18C1194.39,2266.43 1178.01,2268.5 1161.59,2269.86C1150.93,2270.74 1139.98,2271.8 1129.31,2270.47C1122.68,2269.65 1110.64,2267.4 1110.64,2256.59L1110.64,1818.13C1110.64,1810.42 1117.94,1804.35 1122.46,1800.57C1136.38,1788.91 1152.58,1780.97 1168.21,1773.41C1208.39,1753.98 1250.82,1741.96 1293.72,1735.8C1299.06,1735.04 1304.41,1734.41 1309.78,1734C1313.94,1733.67 1318.12,1733.48 1322.29,1733.46C1325.49,1733.45 1328.69,1733.54 1331.89,1733.78C1345.53,1734.79 1365.01,1738.51 1369.96,1756.97C1373.42,1770.15 1376.88,1783.34 1380.34,1796.53C1382.76,1796.18 1385.18,1795.84 1387.6,1795.49C1392.6,1783.1 1400.47,1772.68 1409.07,1763.8C1423.4,1748.98 1440.14,1737.7 1457.1,1727.97C1491.8,1708.05 1528.87,1693.99 1567.05,1688.5C1582.94,1686.21 1599.05,1684.65 1615.06,1685.64C1624.92,1686.25 1635.22,1687.7 1644.33,1692.61C1656.67,1699.26 1666.63,1711.08 1666.63,1728.35C1666.63,1748.76 1664.73,1769.18 1662.49,1789.38C1659.31,1817.92 1651.62,1845.56 1642.26,1871.92C1634.47,1893.83 1621.54,1917.8 1600.25,1920.8C1592.51,1921.89 1584.38,1920.87 1576.64,1920.34C1562.71,1919.39 1548.8,1918.03 1534.9,1916.6C1504.82,1913.51 1474.2,1911.76 1444.13,1916.01C1433.69,1917.48 1423.13,1919.31 1413.06,1923.06C1408.35,1924.82 1403.17,1927.03 1399.53,1931.23C1393.55,1938.12 1390.71,1947.55 1390.71,1957.46Z" style="fill:rgb(232,232,232);fill-rule:nonzero;"/>
                <path id="whiteLetterA" d="M1866.29,2182.18C1817.55,2188.87 1763.42,2190.23 1717.95,2164.02C1702.31,2154.59 1689.74,2139.25 1680.09,2121.78C1668.51,2100.8 1664.02,2075.57 1664.02,2050.59C1664.02,2022.3 1672.66,1995.69 1687.35,1973.9C1702.93,1950.8 1722.24,1931.74 1743.89,1917.59C1768.61,1901.43 1794.94,1889.06 1821.69,1878.84C1870.03,1861.09 1919.88,1849.72 1970.02,1842.64C1981.43,1841.03 1992.84,1839.42 2004.25,1837.81C2004.25,1832.47 2003.8,1827.11 2002.66,1821.95C1999.02,1805.46 1988.28,1794.81 1975.21,1789.79C1963.2,1785.43 1949.57,1787.14 1937.35,1788.87C1916.31,1791.86 1895.82,1800.02 1876.14,1809.22C1855.85,1818.72 1835.7,1828.99 1816.5,1841.45C1809.96,1845.69 1803.35,1849.82 1796.53,1853.35C1792.67,1855.35 1788.55,1857.51 1784.34,1858.1C1777.49,1859.07 1770.62,1855.94 1764.65,1852.14C1753,1844.72 1742.88,1833.79 1733.52,1822.72C1717.31,1803.57 1701.36,1778.6 1701.36,1749.8C1701.36,1744.67 1705.8,1740.17 1708.7,1737.19C1717.96,1727.72 1729.07,1720.61 1739.74,1713.86C1773.98,1692.16 1811.27,1677.35 1848.14,1663.8C1892.68,1647.41 1938.3,1635.13 1984.54,1628.49C2022.51,1623.03 2060.92,1619.47 2099.16,1621.47C2125.55,1622.85 2152.29,1625.45 2178,1633.12C2196.55,1638.65 2214.56,1647.7 2229.87,1661.74C2241.46,1672.37 2252.89,1683.91 2262.02,1697.72C2270.48,1710.52 2275.18,1726.49 2278.1,1742.33C2284,1768.6 2285.36,1796.27 2285.36,1823.38L2285.36,2094.88C2285.36,2099.22 2279.41,2101.86 2276.89,2103.17C2266.11,2108.8 2254.28,2111.91 2242.87,2114.97C2238.55,2116.14 2234.21,2117.23 2229.87,2118.29C2193.48,2127.13 2156.79,2134.19 2119.91,2139.26C2105.72,2141.21 2091.52,2143.06 2077.29,2144.52C2068.04,2145.47 2058.67,2146.53 2049.38,2146.25C2044.9,2146.11 2040.37,2145.89 2035.95,2144.97C2034.06,2144.58 2031.71,2144.14 2030.18,2142.59C2027.35,2139.7 2025.98,2134.85 2025,2130.72C2022.23,2114.01 2019.47,2097.31 2016.7,2080.61C2013.93,2080.99 2011.17,2081.38 2008.4,2081.76C2006,2089.57 2002.97,2097.1 1999.32,2104.17C1975.77,2149.82 1930.63,2169.32 1888.96,2178.23C1881.44,2179.84 1873.88,2181.14 1866.29,2182.18ZM2005.29,2013.87L2005.29,1908.68C1988.67,1911.02 1973.09,1919.44 1961.72,1934.57C1951.92,1947.61 1945.12,1963.88 1945.12,1981.81C1945.12,1985.33 1945.21,1988.85 1945.4,1992.37C1946.35,2009.77 1950.52,2032.99 1967.28,2036.57C1970.24,2037.21 1973.27,2037.19 1976.25,2036.78C1983.68,2035.74 1991.38,2033.43 1997.51,2027.98C2001.24,2024.66 2005.29,2019.92 2005.29,2013.87Z" style="fill:rgb(232,232,232);fill-rule:nonzero;"/>
                <path id="whiteLetterC" d="M2491.78,2072.8C2473.32,2067.96 2455.49,2059.9 2438.36,2050.33C2420.76,2040.49 2404.36,2027.2 2391.16,2009.88C2358.25,1965.31 2347.6,1904.56 2347.6,1846.21C2347.6,1804.7 2355.35,1763.57 2371.45,1726.84C2386.03,1693.61 2405.12,1663.01 2429.54,1639.54C2453.64,1616.38 2480.4,1597.51 2508.38,1582.15C2553.78,1557.29 2601.99,1539.76 2651.53,1532.64C2684.55,1527.89 2717.7,1523.86 2750.93,1522.18C2773.51,1521.04 2796.68,1520.37 2819.05,1524.9C2837.16,1528.57 2859.53,1537.42 2864.98,1561.51C2865.86,1565.42 2866.25,1569.48 2866.25,1573.53C2866.25,1602.98 2859.53,1631.95 2850.17,1658.91C2842.5,1681.02 2829.68,1705.85 2808.16,1708.89C2802.19,1709.74 2795.71,1708.14 2789.83,1707.13C2779.12,1705.3 2768.48,1702.98 2757.85,1700.58C2734.07,1695.22 2709.39,1692.03 2685.24,1695.46C2667.48,1697.97 2650.19,1706.32 2638.56,1723.36C2632.88,1731.68 2629.53,1742.07 2627.29,1752.42C2623.38,1770.48 2622.48,1789.44 2622.48,1808.04C2622.48,1826.27 2623.18,1844.89 2626.82,1862.65C2628.76,1872.11 2631.64,1881.88 2637,1889.33C2648.26,1904.95 2666.03,1907.48 2682.13,1905.24C2708.55,1901.56 2734.24,1889.44 2758.37,1876.48C2769.62,1870.44 2780.89,1864.42 2792.27,1858.73C2797.48,1856.12 2803.5,1852.04 2809.2,1851.24C2826.85,1848.77 2839.43,1870.72 2847.06,1886.81C2857.13,1908.07 2865.21,1932.06 2865.21,1956.94C2865.21,1961.92 2864.76,1966.9 2863.79,1971.74C2857.39,2003.97 2830.69,2022.34 2807.12,2033.5C2757.2,2057.14 2702.95,2067.32 2649.97,2074.59C2620.41,2078.65 2590.65,2081.28 2560.89,2080.94C2537.75,2080.68 2514.45,2078.69 2491.78,2072.8Z" style="fill:rgb(232,232,232);fill-rule:nonzero;"/>
                <path id="whiteLetterE" d="M3201.3,1784.61C3201.3,1791.04 3201.86,1797.53 3203.38,1803.71C3204.3,1807.45 3205.58,1811.07 3207.27,1814.39C3219.12,1837.67 3245.88,1837.68 3265.61,1834.93C3299.31,1830.24 3332.09,1814.85 3363.12,1798.98C3377.7,1791.53 3392.28,1784.08 3406.93,1776.83C3411.32,1774.65 3415.71,1772.48 3420.13,1770.41C3422.07,1769.5 3424.3,1768.06 3426.39,1767.77C3433.38,1766.79 3440.26,1770.58 3446.02,1775C3458.62,1784.66 3468.91,1798.8 3478.26,1812.66C3487.78,1826.78 3497.03,1841.61 3503.82,1857.95C3507.27,1866.28 3510.42,1875.59 3510.42,1885.07C3510.42,1904.02 3493.98,1916.86 3481.93,1924.84C3478.99,1926.79 3475.99,1928.61 3472.96,1930.33C3469.28,1932.42 3465.54,1934.37 3461.77,1936.22C3456.86,1938.62 3451.89,1940.85 3446.88,1942.95C3440.45,1945.65 3433.96,1948.13 3427.43,1950.47C3374.38,1969.45 3320.07,1983.49 3265.09,1991.04C3221.14,1997.08 3176.57,2001.31 3132.32,1998.34C3103.08,1996.37 3073.36,1992.74 3045.18,1982.55C3024.3,1975 3004.1,1964.25 2986.06,1949.31C2972.05,1937.71 2958.31,1924.43 2948.2,1907.73C2939.6,1893.54 2933.1,1877.6 2928.49,1860.93C2921.44,1834.73 2918.12,1807.21 2918.12,1779.68C2918.12,1705.86 2934.18,1631.37 2977.06,1576.85C2988.88,1561.83 3002.27,1548.7 3016.66,1537.48C3050.17,1510.79 3087.14,1490.92 3125.58,1477.26C3171.91,1460.78 3219.79,1450.96 3267.69,1444.08C3284.51,1441.66 3301.38,1439.73 3318.29,1438.47C3331.14,1437.51 3344,1436.94 3356.88,1436.91C3366.95,1436.89 3377.03,1437.2 3387.08,1437.94C3394.83,1438.51 3402.57,1439.34 3410.28,1440.5C3450.53,1446.56 3497.1,1462.37 3518.45,1508.33C3521.67,1515.26 3524.19,1522.66 3526.03,1530.29C3528.93,1542.34 3530.13,1554.93 3530.13,1567.46C3530.13,1579.54 3529.01,1591.63 3526.6,1603.36C3512.46,1672.24 3457.38,1711.59 3406.26,1734.83C3397.47,1738.82 3388.56,1742.45 3379.59,1745.79C3367.53,1750.27 3355.33,1754.21 3343.06,1757.74C3327.63,1762.18 3312.07,1765.97 3296.45,1769.26C3276.24,1773.53 3255.91,1776.98 3235.53,1779.82C3224.12,1781.42 3212.71,1783.02 3201.3,1784.61ZM3199.22,1651.78L3199.22,1711.96C3217.77,1709.35 3235.31,1700.32 3248.5,1684.04C3260.28,1669.5 3267.69,1650.83 3267.69,1630.24C3267.69,1610.79 3264.43,1583.84 3245.22,1580.15C3242.01,1579.54 3238.74,1579.6 3235.53,1580.06C3231.79,1580.59 3228.08,1581.65 3224.6,1583.4C3202.96,1594.27 3199.22,1626.94 3199.22,1651.78Z" style="fill:rgb(232,232,232);fill-rule:nonzero;"/>
            </g>
        </g>
        <g id="whiteCircle">
            <path id="whiteCircleDown" d="M3211.37,2129.43C3008.73,2569.51 2590.98,2898.91 2075.46,2965.47C1613.11,3025.16 1173.13,2860.39 865.27,2555.84" style="fill:none;stroke:rgb(232,232,232);stroke-width:79.17px;"/>
            <path id="whiteCircleUp" d="M505.187,1073.54C673.763,555.84 1127.41,154.017 1702.89,79.72C2248.8,9.239 2763.54,251.682 3066.42,667.688" style="fill:none;stroke:rgb(232,232,232);stroke-width:75px;"/>
        </g>
    </g>
</svg>
