<?xml version="1.0" encoding="UTF-8" standalone="no"?>
<!DOCTYPE svg PUBLIC "-//W3C//DTD SVG 1.1//EN" "http://www.w3.org/Graphics/SVG/1.1/DTD/svg11.dtd">
<svg width="100%" height="100%" viewBox="0 0 3534 3049" version="1.1" xmlns="http://www.w3.org/2000/svg" xmlns:xlink="http://www.w3.org/1999/xlink" xml:space="preserve" xmlns:serif="http://www.serif.com/" style="fill-rule:evenodd;clip-rule:evenodd;stroke-linecap:round;stroke-miterlimit:1.5;">
    <g id="whiteLogo">
        <g>
            <g>
                <path id="whiteLetterS" d="M292.521,1805.08c-48.85,7.06 -97.939,12.708 -147.133,14.449c-34.937,1.236 -70.383,1.036 -104.933,-6.111c-10.804,-2.42 -22.341,-5.094 -32.149,-11.397c-3.625,-2.329 -8.306,-6.075 -8.306,-11.698c0,-31.179 12.27,-61.547 24.895,-87.876c7.154,-14.919 15.04,-30.055 25.368,-42.085c4.98,-5.801 11.123,-11.549 18.199,-12.588c8.125,-1.193 16.879,0.714 24.928,1.794c15.07,2.021 30.09,4.597 45.091,7.261c33.121,5.882 67.24,9.494 100.618,4.608c10.786,-1.578 21.568,-3.331 32.259,-5.689c7.274,-1.603 14.787,-3.258 21.681,-6.609c6.85,-3.329 12.967,-9.445 12.967,-19.073c-0,-11.997 -13.236,-15.603 -20.746,-17.21c-17.056,-3.647 -34.626,-3.573 -51.866,-2.501c-22.286,1.386 -44.638,0.932 -66.906,-0.715c-22.454,-1.661 -44.858,-4.897 -66.906,-10.362c-19.567,-4.849 -37.769,-15.877 -51.866,-33.181c-12.646,-15.523 -18.645,-37.099 -20.746,-58.374c-1.631,-16.515 -0.153,-33.141 2.075,-49.463c4.383,-16.757 9.868,-32.95 17.115,-48.207c10.409,-21.913 25.323,-40.11 42.53,-54.244c25.626,-21.051 55.97,-34.266 85.059,-46.205c41.834,-17.171 85.369,-27.837 129.145,-34.446c39.806,-6.009 79.75,-11.369 119.809,-14.118c25.158,-1.727 50.54,-3.14 75.723,-1.276c15.118,1.119 30.388,2.905 45.123,7.328c2.367,0.686 4.72,1.44 7.051,2.292c1.816,0.664 3.619,1.387 5.398,2.19c7.186,3.247 17.633,9.121 17.633,20.146c-0,30.601 -14.91,59.828 -29.045,83.861c-8.354,14.205 -17.295,28.494 -28.2,39.997c-5.03,5.307 -11.128,10.902 -17.96,11.918c-9.714,1.445 -19.724,0.658 -29.456,0.023c-14.932,-0.973 -29.834,-2.616 -44.711,-4.425c-27.602,-3.356 -56.316,-7.036 -84.022,-2.904c-3.013,0.449 -6.018,0.972 -9.009,1.596c-2.67,0.557 -5.329,1.195 -7.967,1.947c-2.015,0.574 -4.018,1.215 -5.999,1.947c-8.505,3.144 -20.592,9.258 -20.592,22.142c-0,8.613 9.128,11.692 14.616,13.138c1.377,0.362 2.764,0.667 4.157,0.93c1.553,0.293 3.114,0.534 4.677,0.737c2.033,0.263 4.072,0.463 6.113,0.615c23.657,1.771 47.361,2.595 71.056,3.106c27.92,0.601 55.808,3.129 83.503,7.461c26.03,4.071 51.113,15.556 71.574,35.768c20.202,19.955 29.563,49.305 29.563,80.47c0,12.642 -1.174,25.293 -3.713,37.562c-14.244,68.806 -68.259,108.827 -119.445,132.54c-8.682,4.022 -17.479,7.678 -26.351,11.035c-11.315,4.283 -22.754,8.081 -34.268,11.498c-15.15,4.498 -30.432,8.349 -45.785,11.682c-19.853,4.31 -39.82,7.821 -59.846,10.716Z" style="fill:#e8e8e8;fill-rule:nonzero;"/>
                <path id="whiteLetterT" d="M1037.42,1681.43c-8.332,7.946 -19.216,11.992 -29.283,15.324c-18.221,6.03 -37.051,9.37 -55.777,12.076c-36.429,5.266 -73.237,9.398 -109.954,8.358c-28.203,-0.799 -56.287,-6.541 -82.985,-17.665c-8.729,-3.737 -17.107,-8.712 -24.768,-15.03c-41.113,-33.903 -50.955,-98.13 -50.955,-154.489c-0,-46.009 -0,-92.018 -0,-138.027c-17.289,2.573 -34.577,5.147 -51.866,7.72c-9.361,1.394 -15.797,-8.399 -19.708,-17.398c-7.143,-16.435 -8.299,-36.233 -8.299,-54.451c0,-22.365 4.131,-44.565 12.967,-64.269c7.143,-15.931 18.257,-29.719 33.712,-32.05c11.065,-1.67 22.129,-3.339 33.194,-5.008c-0,-35.687 -0,-71.373 -0,-107.06c-0,-13.807 11.275,-24 19.857,-30.525c2.339,-1.779 4.736,-3.444 7.17,-5.025c3.199,-2.077 6.46,-4.01 9.76,-5.839c3.711,-2.058 7.471,-3.985 11.261,-5.816c4.859,-2.347 9.768,-4.538 14.709,-6.617c39.862,-16.773 81.033,-29.214 122.921,-35.619c6.492,-0.992 12.999,-1.849 19.52,-2.507c5.359,-0.541 10.728,-0.949 16.103,-1.163c4.033,-0.161 8.07,-0.212 12.104,-0.108c2.959,0.076 5.916,0.235 8.867,0.509c2.373,0.22 4.741,0.513 7.098,0.904c13.027,2.162 30.703,8.394 30.703,27.883c-0,42.91 -0,85.82 -0,128.731c25.587,-3.861 51.174,-7.721 76.761,-11.581c1.973,-0.297 3.98,-0.331 5.95,0.018c14.41,2.553 18.4,24.027 19.907,38.416c0.363,3.463 0.616,6.943 0.79,10.428c0.229,4.574 0.323,9.156 0.323,13.738c-0,24.978 -2.846,50.664 -11.929,73.337c-6.097,15.218 -15.83,30.353 -30.601,32.552c-20.4,3.036 -40.801,6.073 -61.201,9.11c-0,54.155 -0,108.311 -0,162.467c-0,3.043 0.291,6.096 0.984,9.025c2.992,12.632 13.003,18.881 22.874,21.66c13.681,3.853 27.986,6.117 42.011,4.064c8.766,-1.283 19.009,0.336 22.302,11.845c4.03,14.084 4.149,29.993 4.149,44.722c0,17.599 -0.913,35.85 -5.584,52.65c-2.594,9.329 -6.601,18.524 -13.087,24.71Z" style="fill:#e8e8e8;fill-rule:nonzero;"/>
                <path id="whiteLetterU" d="M1338.24,1653.95c-35.009,5.06 -71.237,7.496 -106.13,-0.111c-19.998,-4.359 -40.172,-12.443 -56.209,-28.05c-33.808,-32.903 -42.751,-90.91 -45.346,-140.438c-0.567,-10.837 -0.814,-21.698 -0.814,-32.557c0,-80.655 0,-161.31 0,-241.965c0,-8.014 7.839,-14.099 12.566,-17.74c14.873,-11.457 32.083,-18.781 48.635,-25.729c41.666,-17.49 84.888,-29.275 128.626,-35.873c6.206,-0.936 12.427,-1.735 18.662,-2.335c4.752,-0.457 9.512,-0.799 14.277,-0.978c3.897,-0.146 7.797,-0.183 11.694,-0.066c2.862,0.086 5.723,0.256 8.576,0.538c14.625,1.444 37.037,6.631 37.037,29.394c0,75.572 0,151.144 0,226.716c0,18.426 0.296,36.873 1.368,55.257c0.828,14.217 1.971,28.608 4.856,42.462c2.741,13.164 9.505,24.173 21.121,26.237c3.309,0.588 6.684,0.498 9.998,0.014c13.782,-2.014 33.194,-8.117 33.194,-28.97c-0,-107.201 -0,-214.402 -0,-321.603c-0,-8.364 8.266,-14.72 13.205,-18.437c15.643,-11.774 33.734,-19.127 51.108,-26.092c45.459,-18.224 92.56,-30.056 140.036,-37.218c5.207,-0.785 10.428,-1.451 15.659,-1.944c4.608,-0.434 9.226,-0.735 13.847,-0.835c3.203,-0.069 6.408,-0.042 9.609,0.123c2.347,0.12 4.692,0.315 7.029,0.61c12.423,1.566 29.58,6.855 29.58,25.581c-0,153.873 -0,307.746 -0,461.619c-0,5.617 -7.618,8.966 -10.785,10.574c-1.18,0.6 -2.373,1.16 -3.574,1.694c-16.386,7.286 -33.89,11.234 -50.991,15.115c-42.646,9.677 -85.545,17.746 -128.627,23.976c-16.308,2.359 -33.222,4.903 -49.665,3.147c-1.181,-0.126 -2.36,-0.285 -3.533,-0.494c-3.425,-0.609 -10.694,-1.916 -11.115,-7.649c-3.457,-18.857 -6.915,-37.715 -10.373,-56.573c-2.766,0.403 -5.532,0.805 -8.298,1.208c-6.674,23.963 -20.635,43.445 -37.343,58.118c-12.893,11.381 -28.165,18.849 -43.048,25.425c-20.876,9.225 -42.806,14.666 -64.832,17.849Z" style="fill:#e8e8e8;fill-rule:nonzero;"/>
                <path id="whiteLetterD" d="M2028.05,1554.25c-23.731,3.43 -47.831,4.096 -71.574,0.461c-18.508,-2.833 -37.284,-7.252 -54.459,-16.365c-14.197,-7.533 -26.735,-19.009 -36.824,-33.254c-9.249,-13.059 -17.653,-27.207 -23.858,-42.738c-6.562,-16.424 -10.098,-34.513 -12.448,-52.456c-4.743,-35.537 -6.224,-71.666 -6.224,-107.627c0,-70.715 13.575,-143.381 52.903,-197.663c37.257,-51.425 89.947,-78.653 145.223,-86.996c9.383,-1.417 18.797,-2.554 28.232,-3.318c7.737,-0.626 15.489,-1 23.244,-1.043c28.77,-0.159 60.454,3.421 85.449,22.419c6.074,4.945 11.085,11.592 14.522,19.433c2.766,-0.416 5.532,-0.832 8.298,-1.247c-2.334,-25.473 -4.668,-50.945 -7.002,-76.418c-1.815,-32.151 -3.63,-64.302 -5.445,-96.453c-0,-8.416 6.97,-15.18 11.927,-19.592c13.821,-12.3 30.326,-20.434 46.162,-28.013c40.252,-19.266 82.618,-31.569 125.514,-38.132c20.387,-3.119 41.45,-5.479 61.949,-2.453c9.76,1.44 20.599,4.14 28.297,12.141c4.022,4.391 7.261,10.185 7.261,16.966l0,641.656c0,4.422 -6.245,7.107 -8.785,8.418c-11.21,5.787 -23.457,9.033 -35.292,12.244c-4.488,1.218 -8.987,2.372 -13.494,3.484c-36.74,9.063 -73.759,16.538 -110.991,21.923c-13.861,2.004 -27.739,3.899 -41.65,5.33c-8.863,0.912 -17.907,1.996 -26.813,1.417c-5.478,-0.357 -13.88,0.006 -18.671,-4.057c-2.931,-2.485 -4.134,-6.938 -4.668,-11.036c-2.766,-16.716 -5.532,-33.431 -8.299,-50.147c-2.766,0.403 -5.532,0.805 -8.298,1.208c-6.797,23.943 -20.88,43.468 -37.343,58.554c-30.009,28.097 -70.056,38.037 -106.843,43.354Zm116.179,-148.26c11.093,-1.62 19.77,-9.776 24.895,-21.652c0,-80.165 0,-160.33 0,-240.496c0,-7.323 -5.786,-10.775 -10.892,-12.335c-6.227,-1.902 -12.774,-3.044 -19.19,-2.086c-17.183,2.567 -24.182,27.687 -27.775,44.953c-0.803,3.857 -1.497,7.746 -2.112,11.653c-0.757,4.815 -1.392,9.658 -1.937,14.515c-0.731,6.51 -1.301,13.047 -1.757,19.594c-0.554,7.96 -0.936,15.936 -1.201,23.917c-0.343,10.341 -0.486,20.692 -0.486,31.042c-0,21.156 0.476,42.395 2.463,63.428c1.302,13.776 3.087,27.95 7.391,40.883c4.083,12.269 11.15,24.239 22.622,26.468c2.637,0.513 5.33,0.503 7.979,0.116Z" style="fill:#e8e8e8;fill-rule:nonzero;"/>
                <path id="whiteLetterI" d="M2807.07,964.269c0,149.146 0,298.293 0,447.439c0,4.753 -7.173,7.558 -9.844,8.862c-11.46,5.597 -23.801,8.875 -35.822,12.09c-4.649,1.244 -9.311,2.424 -13.979,3.561c-40.516,9.867 -81.37,17.663 -122.402,23.597c-16.311,2.359 -32.65,4.542 -49.034,5.998c-10.513,0.935 -21.345,2.091 -31.876,0.728c-6.74,-0.873 -18.153,-3.344 -18.153,-14.108c-0,-143.223 -0,-286.446 -0,-429.669c-0,-8.476 7.049,-15.303 12.033,-19.749c13.949,-12.441 30.596,-20.707 46.575,-28.417c41.035,-19.8 84.329,-32.168 128.107,-38.765c6.491,-0.978 12.998,-1.81 19.52,-2.431c4.97,-0.473 9.95,-0.824 14.933,-1.001c4.076,-0.145 8.156,-0.174 12.232,-0.04c2.994,0.099 5.986,0.286 8.97,0.593c13.396,1.377 33.505,5.233 37.91,23.814c0.578,2.434 0.83,4.969 0.83,7.498Zm-141.074,-217.11c35.056,-5.363 72.661,-9.215 107.362,1.265c17.829,5.384 32.79,18.277 37.294,40.664c1.142,5.68 1.605,11.541 1.605,17.381c-0,5.777 -0.554,11.556 -1.738,17.156c-7.073,33.47 -34.532,52.363 -59.324,63.667c-4.601,2.097 -9.261,3.998 -13.961,5.742c-5.682,2.108 -11.421,3.987 -17.195,5.687c-7.607,2.239 -15.274,4.167 -22.975,5.861c-9.963,2.193 -19.983,3.995 -30.03,5.513c-9.309,1.406 -18.644,2.569 -28.001,3.389c-7.717,0.676 -15.45,1.119 -23.187,1.235c-5.792,0.086 -11.587,-0.012 -17.373,-0.359c-4.216,-0.253 -8.426,-0.639 -12.622,-1.195c-24.481,-3.247 -54.903,-13.313 -62.303,-45.969c-1.221,-5.389 -1.737,-10.988 -1.737,-16.57c-0,-5.757 0.549,-11.515 1.724,-17.096c7.013,-33.307 34.243,-52.194 58.902,-63.518c4.567,-2.097 9.194,-3.999 13.86,-5.744c5.641,-2.11 11.339,-3.992 17.073,-5.695c7.551,-2.243 15.164,-4.176 22.811,-5.877c9.89,-2.2 19.839,-4.011 29.815,-5.537Z" style="fill:#e8e8e8;fill-rule:nonzero;"/>
                <path id="whiteLetterO" d="M3204.36,1384.24c-44.302,6.403 -89.193,10.477 -133.813,7.505c-34.8,-2.319 -69.473,-10.635 -101.656,-27.123c-11.352,-5.569 -22.2,-12.689 -32.079,-21.483c-6.742,-6 -13.018,-12.765 -18.708,-20.198c-34.352,-44.876 -43.608,-108.85 -43.608,-168.059c0,-64.012 15.511,-126.759 50.926,-175.176c13.315,-18.204 28.817,-33.93 45.544,-47.322c69.311,-55.113 151.957,-81.136 233.394,-93.429c34.773,-5.248 69.726,-9.544 104.768,-10.793c29.695,-1.058 59.443,1.838 88.69,8.095c25.567,5.47 51.396,15.183 72.611,33.883c20.372,17.956 34.841,43.927 45.123,71.475c13.489,36.141 17.634,76.564 17.634,115.91c0,58.942 -13.05,117.08 -42.165,164.802c-13.278,21.765 -29.344,40.877 -47.043,57.328c-68.584,63.75 -155.027,92.359 -239.618,104.585Zm-36.306,-172.487c2.044,8.936 4.336,17.989 7.861,26.253c1.682,3.943 3.858,8.502 7.18,10.741c6.243,4.209 13.831,4.361 20.746,3.351c7.378,-1.078 14.855,-3.719 20.746,-9.415c3.307,-3.197 5.386,-8.257 7.066,-12.831c3.346,-9.107 5.53,-18.85 7.457,-28.517c5.429,-27.24 6.742,-55.617 6.742,-83.551c0,-25.381 -0.126,-51.009 -2.593,-76.248c-1.329,-13.594 -2.836,-27.464 -6.224,-40.581c-2.008,-7.773 -4.952,-15.6 -9.854,-21.334c-6.119,-6.858 -14.063,-9.756 -22.302,-8.525c-7.633,1.14 -15.205,4.115 -21.265,10.014c-3.469,3.376 -5.715,8.549 -7.552,13.345c-3.551,9.268 -5.92,19.207 -8.008,29.082c-6.534,30.907 -7.261,63.68 -7.261,95.409c-0,30.763 0.431,62.943 7.261,92.807Z" style="fill:#e8e8e8;fill-rule:nonzero;"/>
                <path id="whiteLetterG" d="M765.175,2274.06c-0,-17.123 -0,-34.246 -0,-51.369c-2.766,0.384 -5.532,0.767 -8.298,1.151c-4.257,5.133 -9.499,9.169 -14.523,13.081c-6.054,4.714 -13.009,7.927 -19.657,11.151c-10.448,5.065 -21.056,9.645 -31.689,14.101c-29.829,12.499 -61.01,19.931 -92.321,24.257c-28.613,3.952 -58.196,5.462 -86.615,-1.279c-19.152,-4.543 -38.921,-11.538 -54.977,-25.485c-14.118,-12.262 -24.269,-29.877 -31.12,-49.046c-15.297,-43.011 -17.634,-92.42 -17.634,-138.636c0,-60.724 14.943,-120.479 50.828,-164.234c16.187,-20.433 37.478,-34.484 58.608,-45.909c26.471,-14.312 54.745,-23.315 83.503,-27.446c24.306,-3.491 49.253,-5.732 73.649,-2.174c14.673,2.14 30.369,5.097 43.567,13.663c8.661,6.15 17.281,13.018 24.322,21.778c3.828,4.762 7.374,10.355 8.872,16.857c0.346,2.607 0.692,5.214 1.037,7.821c2.766,-0.394 5.533,-0.789 8.299,-1.183c3.112,-11.959 6.224,-23.917 9.336,-35.876c1.687,-6.294 5.834,-11.192 10.12,-15.027c8.526,-7.629 18.718,-12.49 28.672,-16.61c17.444,-7.221 35.555,-12.058 53.644,-16.203c23.666,-5.423 47.545,-9.452 71.458,-12.884c19.365,-2.78 39.248,-5.184 58.749,-3.121c8.01,0.848 17.932,2.168 24.236,8.977c4.46,5.091 8.698,11.211 10.373,18.504c2.043,8.897 2.074,18.549 2.074,27.691c0,124.095 0,248.189 0,372.284c0,16.319 -1.471,32.652 -4.685,48.51c-10.473,51.677 -39.486,92.843 -75.187,122.308c-28.943,23.887 -61.602,40.637 -94.9,53.292c-12.591,4.785 -25.368,8.5 -38.088,12.696c-10.311,3.402 -20.536,7.002 -30.96,9.895c-23.228,6.448 -46.804,10.963 -70.484,14.113c-31.988,4.255 -64.103,7.48 -96.276,8.647c-14.98,0.544 -29.906,0.164 -44.885,0.056c-27.189,-0.196 -55.37,-0.32 -81.86,-8.978c-2.041,-0.696 -4.071,-1.447 -6.078,-2.277c-7.065,-2.921 -19.855,-8.471 -19.855,-19.788c0,-9.894 2.524,-19.851 5.057,-29.15c4.201,-15.42 9.559,-30.375 15.171,-45.104c5.727,-15.032 12.153,-30.507 21.348,-42.921c4.303,-5.808 9.851,-11.69 16.514,-12.608c3.681,-0.507 7.563,0.108 11.232,0.409c5.944,0.488 11.88,1.117 17.812,1.774c42.48,3.671 85.683,5.888 128.108,0.055c14.177,-1.949 28.407,-4.408 42.262,-8.634c8.272,-2.524 16.834,-5.589 24.125,-11.119c10.587,-8.029 17.116,-20.696 17.116,-36.01Zm-41.492,-105.811c6.865,-0.957 13.532,-3.956 18.671,-9.686c3.958,-4.413 7.261,-10.197 7.261,-16.951c0,-60.805 0,-121.609 0,-182.413c-2.984,-12.951 -12.62,-16.802 -22.82,-15.353c-22.996,3.267 -31.802,33.547 -35.569,57.334c-0.742,4.687 -1.338,9.408 -1.826,14.144c-0.639,6.218 -1.091,12.463 -1.407,18.717c-0.438,8.658 -0.616,17.335 -0.616,26.009c-0,26.927 1.425,55.598 9.854,80.912c4.497,13.504 12.672,29.207 26.452,27.287Z" style="fill:#e8e8e8;fill-rule:nonzero;"/>
                <path id="whiteLetterR" d="M1390.71,1957.46c0,86.859 0,173.717 0,260.575c0,4.413 -6.427,7.034 -8.943,8.287c-11.442,5.696 -23.888,8.852 -35.928,11.986c-4.57,1.19 -9.15,2.316 -13.737,3.401c-40.179,9.497 -80.692,16.883 -121.365,22.471c-16.351,2.246 -32.729,4.316 -49.148,5.677c-10.661,0.884 -21.606,1.948 -32.28,0.618c-6.63,-0.826 -18.672,-3.075 -18.672,-13.887c0,-146.154 0,-292.307 0,-438.461c0,-7.708 7.307,-13.774 11.821,-17.554c13.924,-11.659 30.117,-19.607 45.75,-27.165c40.178,-19.426 82.608,-31.444 125.514,-37.606c5.337,-0.767 10.69,-1.39 16.054,-1.805c4.167,-0.322 8.342,-0.518 12.518,-0.536c3.2,-0.013 6.4,0.079 9.594,0.316c13.64,1.011 33.124,4.736 38.076,23.192c3.458,13.186 6.916,26.373 10.373,39.559c2.421,-0.346 4.841,-0.691 7.261,-1.037c5.002,-12.392 12.874,-22.809 21.467,-31.694c14.336,-14.822 31.072,-26.096 48.033,-35.83c34.701,-19.916 71.77,-33.982 109.954,-39.47c15.892,-2.284 31.999,-3.848 48.008,-2.855c9.859,0.611 20.162,2.057 29.272,6.965c12.338,6.648 22.302,18.476 22.302,35.747c-0,20.409 -1.902,40.827 -4.149,61.026c-3.175,28.537 -10.86,56.184 -20.228,82.541c-7.788,21.913 -20.717,45.883 -42.011,48.882c-7.741,1.091 -15.869,0.069 -23.61,-0.46c-13.929,-0.951 -27.84,-2.313 -41.74,-3.743c-30.078,-3.093 -60.696,-4.838 -90.764,-0.593c-10.439,1.474 -21.003,3.298 -31.077,7.057c-4.709,1.758 -9.883,3.962 -13.528,8.166c-5.978,6.895 -8.817,16.318 -8.817,26.23Z" style="fill:#e8e8e8;fill-rule:nonzero;"/>
                <path id="whiteLetterA" d="M1866.29,2182.18c-48.743,6.692 -102.871,8.049 -148.335,-18.157c-15.648,-9.429 -28.213,-24.771 -37.862,-42.245c-11.584,-20.98 -16.078,-46.206 -16.078,-71.192c-0,-28.289 8.645,-54.892 23.339,-76.685c15.576,-23.101 34.888,-42.165 56.534,-56.313c24.718,-16.157 51.052,-28.525 77.798,-38.751c48.346,-17.751 98.198,-29.113 148.335,-36.192c11.41,-1.611 22.82,-3.222 34.231,-4.833c-0,-5.338 -0.455,-10.701 -1.596,-15.866c-3.64,-16.49 -14.375,-27.132 -27.449,-32.155c-12.005,-4.365 -25.638,-2.653 -37.862,-0.919c-21.032,2.985 -41.525,11.148 -61.201,20.352c-20.296,9.495 -40.448,19.765 -59.645,32.224c-6.536,4.241 -13.147,8.372 -19.968,11.904c-3.859,1.998 -7.98,4.154 -12.188,4.749c-6.853,0.968 -13.726,-2.16 -19.69,-5.96c-11.652,-7.423 -21.772,-18.351 -31.138,-29.42c-16.206,-19.152 -32.157,-44.122 -32.157,-72.919c0,-5.13 4.439,-9.635 7.346,-12.61c9.26,-9.474 20.368,-16.581 31.034,-23.337c34.246,-21.693 71.536,-36.502 108.399,-50.06c44.54,-16.381 90.166,-28.661 136.406,-35.306c37.97,-5.457 76.378,-9.024 114.622,-7.024c26.385,1.381 53.121,3.981 78.836,11.651c18.547,5.531 36.559,14.588 51.865,28.621c11.594,10.629 23.029,22.17 32.157,35.983c8.46,12.803 13.156,28.765 16.078,44.609c5.898,26.267 7.261,53.942 7.261,81.05c0,90.499 0,180.998 0,271.497c0,4.346 -5.951,6.983 -8.468,8.297c-10.785,5.631 -22.613,8.736 -34.021,11.8c-4.326,1.162 -8.663,2.261 -13.007,3.317c-36.389,8.844 -73.077,15.899 -109.954,20.966c-14.19,1.95 -28.392,3.801 -42.622,5.263c-9.253,0.95 -18.618,2.013 -27.915,1.73c-4.476,-0.136 -9.003,-0.356 -13.424,-1.275c-1.888,-0.393 -4.243,-0.831 -5.767,-2.382c-2.836,-2.889 -4.2,-7.74 -5.186,-11.876c-2.766,-16.702 -5.532,-33.404 -8.299,-50.106c-2.766,0.382 -5.532,0.765 -8.298,1.147c-2.398,7.814 -5.431,15.34 -9.078,22.409c-23.554,45.649 -68.692,65.15 -110.365,74.068c-7.519,1.609 -15.082,2.904 -22.668,3.946Zm138.999,-168.315c0,-35.06 0,-70.12 0,-105.18c-16.623,2.333 -32.201,10.752 -43.567,25.881c-9.8,13.046 -16.597,29.309 -16.597,47.242c0,3.521 0.082,7.044 0.274,10.558c0.952,17.403 5.12,40.62 21.88,44.208c2.957,0.633 5.989,0.616 8.966,0.203c7.437,-1.033 15.136,-3.342 21.264,-8.796c3.734,-3.322 7.78,-8.065 7.78,-14.116Z" style="fill:#e8e8e8;fill-rule:nonzero;"/>
                <path id="whiteLetterC" d="M2491.78,2072.8c-18.463,-4.837 -36.294,-12.897 -53.421,-22.47c-17.604,-9.841 -34.001,-23.131 -47.198,-40.452c-32.912,-44.565 -43.566,-105.315 -43.566,-163.665c-0,-41.516 7.75,-82.648 23.858,-119.376c14.572,-33.226 33.669,-63.832 58.089,-87.301c24.096,-23.159 50.857,-42.026 78.835,-57.383c45.399,-24.865 93.617,-42.395 143.149,-49.513c33.023,-4.746 66.173,-8.777 99.409,-10.457c22.574,-1.141 45.743,-1.815 68.116,2.719c18.113,3.671 40.475,12.514 45.927,36.606c0.885,3.911 1.27,7.971 1.27,12.022c0,29.448 -6.719,58.419 -16.078,85.383c-7.673,22.107 -20.491,46.937 -42.011,49.979c-5.973,0.844 -12.445,-0.754 -18.332,-1.762c-10.703,-1.833 -21.351,-4.15 -31.977,-6.546c-23.78,-5.362 -48.457,-8.552 -72.612,-5.128c-17.762,2.517 -35.049,10.859 -46.679,27.901c-5.681,8.326 -9.026,18.712 -11.269,29.064c-3.913,18.058 -4.809,37.024 -4.809,55.621c0,18.224 0.701,36.848 4.343,54.605c1.94,9.459 4.814,19.235 10.179,26.684c11.252,15.623 29.031,18.148 45.123,15.908c26.424,-3.68 52.112,-15.802 76.242,-28.759c11.254,-6.042 22.525,-12.055 33.9,-17.754c5.209,-2.61 11.233,-6.691 16.928,-7.486c17.651,-2.466 30.239,19.475 37.862,35.571c10.068,21.26 18.153,45.249 18.153,70.13c-0,4.979 -0.456,9.959 -1.418,14.801c-6.403,32.227 -33.106,50.601 -56.671,61.758c-49.926,23.637 -104.169,33.815 -157.152,41.09c-29.557,4.058 -59.319,6.686 -89.079,6.348c-23.14,-0.263 -46.444,-2.244 -69.111,-8.138Z" style="fill:#e8e8e8;fill-rule:nonzero;"/>
                <path id="whiteLetterE" d="M3201.3,1784.61c-0,6.432 0.557,12.917 2.076,19.096c0.92,3.743 2.201,7.361 3.894,10.686c11.853,23.276 38.611,23.284 58.343,20.539c33.696,-4.688 66.477,-20.079 97.507,-35.948c14.579,-7.456 29.164,-14.9 43.812,-22.158c4.387,-2.174 8.778,-4.343 13.2,-6.414c1.939,-0.908 4.167,-2.353 6.263,-2.646c6.988,-0.976 13.865,2.815 19.628,7.236c12.598,9.662 22.882,23.795 32.238,37.664c9.518,14.111 18.774,28.941 25.554,45.285c3.455,8.329 6.602,17.635 6.602,27.115c0,18.951 -16.434,31.797 -28.49,39.778c-2.94,1.947 -5.937,3.766 -8.97,5.489c-3.681,2.09 -7.415,4.04 -11.184,5.885c-4.913,2.406 -9.884,4.634 -14.891,6.733c-6.431,2.697 -12.923,5.183 -19.449,7.518c-53.051,18.984 -107.359,33.024 -162.339,40.572c-43.958,6.035 -88.525,10.271 -132.775,7.296c-29.237,-1.966 -58.959,-5.594 -87.134,-15.786c-20.885,-7.554 -41.09,-18.303 -59.127,-33.238c-14.01,-11.601 -27.744,-24.886 -37.861,-41.585c-8.598,-14.191 -15.097,-30.123 -19.709,-46.798c-7.051,-26.199 -10.373,-53.718 -10.373,-81.253c-0,-73.815 16.067,-148.306 58.949,-202.827c11.815,-15.021 25.207,-28.148 39.595,-39.372c33.515,-26.685 70.484,-46.553 108.917,-60.218c46.339,-16.476 94.218,-26.295 142.111,-33.178c16.821,-2.418 33.693,-4.356 50.601,-5.615c12.847,-0.957 25.716,-1.522 38.587,-1.551c10.074,-0.023 20.151,0.282 30.206,1.023c7.75,0.571 15.489,1.401 23.194,2.561c40.258,6.062 86.828,21.867 108.174,67.833c3.219,6.932 5.739,14.324 7.576,21.958c2.902,12.053 4.101,24.638 4.101,37.174c0,12.08 -1.117,24.166 -3.524,35.894c-14.138,68.886 -69.223,108.228 -120.345,131.47c-8.791,3.996 -17.693,7.627 -26.67,10.96c-12.062,4.479 -24.258,8.424 -36.532,11.955c-15.429,4.439 -30.984,8.225 -46.606,11.521c-20.212,4.265 -40.539,7.711 -60.918,10.56c-11.411,1.596 -22.821,3.191 -34.231,4.786Zm-2.075,-132.831c-0,20.059 -0,40.119 -0,60.178c18.544,-2.609 36.085,-11.637 49.272,-27.915c11.78,-14.54 19.19,-33.215 19.19,-53.806c0,-19.448 -3.26,-46.396 -22.47,-50.083c-3.202,-0.615 -6.474,-0.553 -9.686,-0.097c-3.745,0.533 -7.448,1.596 -10.936,3.347c-21.636,10.863 -25.37,43.541 -25.37,68.376Z" style="fill:#e8e8e8;fill-rule:nonzero;"/>
            </g>
        </g>
        <g id="whiteCircle">
            <path id="whiteCircleDown" d="M3211.37,2129.43c-202.636,440.082 -620.394,769.478 -1135.91,836.035c-462.348,59.693 -902.333,-105.07 -1210.19,-409.626" style="fill:none;stroke:#e8e8e8;stroke-width:79.17px;"/>
            <path id="whiteCircleUp" d="M505.187,1073.54c168.576,-517.7 622.224,-919.523 1197.7,-993.82c545.916,-70.481 1060.65,171.962 1363.53,587.968" style="fill:none;stroke:#e8e8e8;stroke-width:75px;"/>
        </g>
    </g>
</svg>
