<svg width="200" height="316" viewBox="0 0 200 316" fill="none" xmlns="http://www.w3.org/2000/svg">
<path d="M199.997 2.50304C199.997 1.1207 198.879 -0.00122804 197.5 -0.00286643C196.121 -0.00450483 195.003 1.11476 195.003 2.49713L199.997 2.50304ZM64.4689 169.657L64.7805 172.141L64.927 172.122L65.0703 172.087L64.4689 169.657ZM31.3665 151.086L32.9387 153.033L31.3665 151.086ZM138.5 302.5L114.185 286.938L112.922 315.811L138.5 302.5ZM53.8416 137.167L51.7088 135.863L53.8416 137.167ZM65.0703 172.087C75.5106 169.503 82.4206 164.014 85.7762 157.65C89.1236 151.301 88.8526 144.147 84.971 138.836C81.065 133.493 73.9049 130.54 64.5197 131.694C55.1742 132.844 43.4708 138.046 29.7943 149.14L32.9387 153.033C46.1921 142.282 57.0388 137.658 65.1336 136.663C73.1888 135.672 78.3591 138.256 80.9437 141.792C83.5526 145.361 83.9322 150.429 81.3602 155.307C78.7964 160.169 73.2169 164.913 63.8676 167.227L65.0703 172.087ZM29.7943 149.14C1.00472 172.494 -7.10924 208.607 7.02402 240.247C21.1518 271.875 57.2295 298.521 115.804 303.979L116.26 298.994C58.9594 293.655 24.78 267.753 11.5817 238.206C-1.61122 208.671 5.87958 174.983 32.9387 153.033L29.7943 149.14ZM51.7088 135.863C46.791 143.953 45.0425 153.299 46.9931 160.581C47.9784 164.259 49.9425 167.507 53.0293 169.665C56.1323 171.835 60.113 172.723 64.7805 172.141L64.1573 167.173C60.4768 167.633 57.792 166.895 55.8832 165.56C53.9581 164.214 52.5641 162.08 51.8163 159.288C50.3008 153.631 51.5867 145.69 55.9745 138.471L51.7088 135.863ZM195.003 2.49713C195.003 27.614 188.067 45.1621 177.364 58.2166C166.609 71.3347 151.886 80.1206 135.944 87.3873C127.977 91.0186 119.768 94.2446 111.632 97.4516C103.521 100.649 95.4759 103.83 87.9547 107.339C72.9498 114.339 59.6416 122.812 51.7088 135.863L55.9745 138.471C63.12 126.715 75.3082 118.763 90.0665 111.878C97.4269 108.444 105.33 105.317 113.465 102.111C121.575 98.9135 129.909 95.6396 138.015 91.9446C154.219 84.5588 169.755 75.3868 181.224 61.3976C192.745 47.3447 199.997 28.6362 199.997 2.50304L195.003 2.49713Z" fill="#629076"/>
</svg>
