<svg width="443" height="409" viewBox="0 0 443 409" fill="none" xmlns="http://www.w3.org/2000/svg">
<path d="M5.60593 31.8619C4.42592 30.6988 2.52647 30.7126 1.3634 31.8926C0.200327 33.0726 0.214058 34.972 1.39407 36.1351L5.60593 31.8619ZM251.5 85.4985L250.487 82.6749L250.487 82.6749L251.5 85.4985ZM224.5 18.501L226.621 20.6223L226.621 20.6223L224.5 18.501ZM347.5 186.5L347.623 183.503L347.5 186.5ZM295 402L328.982 408.723L317.814 375.932L295 402ZM1.39407 36.1351C36.7232 70.9571 136.256 130.046 252.513 88.3222L250.487 82.6749C137.145 123.352 39.9435 65.7066 5.60593 31.8619L1.39407 36.1351ZM252.513 88.3222C274.148 80.5579 286.83 69.1003 292.482 56.6563C298.143 44.1911 296.533 31.1854 290.458 20.9124C284.402 10.6741 273.857 3.05024 261.49 1.27385C249.03 -0.515693 235.084 3.67483 222.379 16.3797L226.621 20.6223C238.167 9.07667 250.283 5.72585 260.636 7.2129C271.081 8.71312 280.099 15.1838 285.293 23.9668C290.467 32.715 291.795 43.6572 287.019 54.1754C282.232 64.7148 271.102 75.2761 250.487 82.6749L252.513 88.3222ZM222.379 16.3797C210.471 28.2878 205.975 45.0408 207.357 63.1551C208.738 81.2583 215.988 100.946 227.871 119.23C251.628 155.784 294.32 187.327 347.377 189.498L347.623 183.503C296.876 181.427 255.818 151.22 232.902 115.961C221.448 98.3381 214.63 79.6035 213.34 62.6985C212.05 45.8046 216.28 30.9637 226.621 20.6223L222.379 16.3797ZM347.377 189.498C378.766 190.781 401.805 200.466 416.526 214.825C431.215 229.152 437.882 248.378 436.136 269.371C432.634 311.456 395.119 361.092 319.493 390.491L321.667 396.084C398.553 366.194 438.356 315.048 442.115 269.868C443.999 247.228 436.782 226.2 420.716 210.529C404.681 194.889 380.092 184.831 347.623 183.503L347.377 189.498Z" fill="#629076"/>
</svg>
