<svg width="499" height="642" viewBox="0 0 499 642" fill="none" xmlns="http://www.w3.org/2000/svg">
<path d="M276.62 2.47886C275.272 2.7766 274.42 4.11092 274.718 5.45915C275.016 6.80737 276.35 7.65897 277.698 7.36123L276.62 2.47886ZM492.865 174.103L490.396 174.495L492.865 174.103ZM364.196 274.435L365.829 272.541L365.829 272.541L364.196 274.435ZM174.518 485.677L174.987 483.221L174.518 485.677ZM93.3884 631.284L71.3545 612.633L66.2197 641.041L93.3884 631.284ZM277.698 7.36123C291.062 4.40996 309.791 5.35606 330.814 10.565C351.791 15.7629 374.866 25.1601 396.863 38.9137C440.859 66.4218 480.354 111.221 490.396 174.495L495.335 173.711C485.01 108.662 444.403 62.741 399.514 34.6741C377.068 20.6402 353.505 11.0362 332.016 5.7118C310.573 0.398576 291.008 -0.698504 276.62 2.47886L277.698 7.36123ZM490.396 174.495C502.976 253.749 471.917 307.861 429.738 338.191C387.329 368.687 333.917 375.035 301.816 359.079L299.591 363.557C333.799 380.56 389.198 373.501 432.657 342.251C476.347 310.834 508.214 254.859 495.335 173.711L490.396 174.495ZM301.816 359.079C285.966 351.201 277.736 338.541 275.228 324.869C272.706 311.115 275.965 296.224 283.369 284.105C290.77 271.99 302.179 262.851 315.774 260.277C329.298 257.717 345.445 261.57 362.564 276.328L365.829 272.541C347.816 257.012 330.172 252.463 314.844 255.365C299.585 258.253 287.079 268.441 279.102 281.498C271.127 294.552 267.543 310.68 270.31 325.771C273.093 340.944 282.286 354.955 299.591 363.557L301.816 359.079ZM362.564 276.328C378.167 289.779 385.908 311.422 385.673 336.141C385.439 360.837 377.228 388.344 361.259 413.079C329.389 462.443 266.651 500.721 174.987 483.221L174.049 488.132C267.764 506.024 332.512 466.824 365.459 415.791C381.898 390.329 390.429 361.907 390.673 336.188C390.917 310.492 382.872 287.234 365.829 272.541L362.564 276.328ZM174.987 483.221C89.3851 466.879 30.4976 494.566 9.32468 531.404C-1.28337 549.861 -2.32843 570.567 7.69894 588.687C17.695 606.75 38.4589 621.831 70.6633 629.712L71.8519 624.855C40.5321 617.191 21.1906 602.74 12.0737 586.266C2.9881 569.848 3.82242 551.011 13.6597 533.895C33.3774 499.589 89.6441 472.018 174.049 488.132L174.987 483.221Z" fill="#629076"/>
</svg>
