<svg width="335" height="532" viewBox="0 0 335 532" fill="none" xmlns="http://www.w3.org/2000/svg">
<path d="M95.5409 0.41447C96.7727 -0.205867 98.2739 0.292712 98.8941 1.5281C99.5142 2.76347 99.0184 4.26783 97.7867 4.88818L95.5409 0.41447ZM207.285 145.32L208.058 147.701L207.918 147.747L207.773 147.776L207.285 145.32ZM229.366 114.449L228.77 116.879L229.366 114.449ZM31.5 532L3.82612 523.86L24.6703 503.913L31.5 532ZM203.107 111.393L201.73 113.479L203.107 111.393ZM88.0002 438L87.342 440.414L88.0002 438ZM277.5 342.5L275.637 340.831L277.5 342.5ZM160.5 386.5L162.009 384.507L160.5 386.5ZM186.5 351.5L187.506 349.21L187.665 349.281L187.814 349.373L186.5 351.5ZM97.7867 4.88818C81.1845 13.2497 72.9822 28.5894 74.053 43.6999C75.1206 58.7644 85.4598 74.1263 107.075 82.3419L105.309 87.0225C82.1631 78.2252 70.298 61.3552 69.0716 44.0493C67.8485 26.7893 77.2627 9.62006 95.5409 0.41447L97.7867 4.88818ZM207.773 147.776C197.223 149.871 188.636 147.837 182.896 143.5C177.169 139.174 174.375 132.582 175.634 126.126C176.901 119.629 182.129 113.915 191.116 110.974C200.065 108.045 212.869 107.784 229.963 112.019L228.77 116.879C212.205 112.775 200.421 113.196 192.67 115.733C184.957 118.257 181.373 122.792 180.535 127.091C179.689 131.43 181.498 136.179 185.898 139.503C190.285 142.816 197.35 144.741 206.797 142.865L207.773 147.776ZM107.075 82.3419C129.176 90.742 146.629 93.0572 162.026 95.4466C177.406 97.8334 190.935 100.313 204.484 109.306L201.73 113.479C189.176 105.147 176.628 102.778 161.267 100.394C145.922 98.0125 127.969 95.6353 105.309 87.0225L107.075 82.3419ZM204.484 109.306C212.372 114.542 217.925 122.261 219.252 129.682C219.922 133.43 219.523 137.204 217.645 140.469C215.757 143.752 212.531 146.247 208.058 147.701L206.512 142.94C210.04 141.792 212.157 139.984 213.318 137.965C214.489 135.929 214.845 133.405 214.336 130.56C213.305 124.795 208.768 118.151 201.73 113.479L204.484 109.306ZM87.342 440.414C63.822 433.946 36.7046 440.177 20.4401 454.18C12.3526 461.143 7.05638 469.924 6.04507 479.927C5.03487 489.919 8.26215 501.509 17.9496 514.171L13.9881 517.215C3.72309 503.798 -0.0913164 490.969 1.07658 479.417C2.24335 467.877 8.34496 457.991 17.184 450.381C34.7727 435.238 63.6234 428.702 88.6584 435.586L87.342 440.414ZM229.963 112.019C269.577 121.834 315.17 155.265 329.893 204.787L325.107 206.212C310.992 158.735 267.04 126.361 228.77 116.879L229.963 112.019ZM329.893 204.787C344.715 254.644 320.446 298.075 279.363 344.169L275.637 340.831C316.554 294.925 339.123 253.356 325.107 206.212L329.893 204.787ZM279.363 344.169C261.058 364.706 241.038 383.247 220.636 392.965C210.405 397.838 199.982 400.54 189.574 400.087C179.135 399.634 168.87 396.013 158.991 388.493L162.009 384.507C171.13 391.45 180.427 394.679 189.785 395.086C199.175 395.494 208.783 393.066 218.489 388.443C237.962 379.167 257.442 361.246 275.637 340.831L279.363 344.169ZM158.991 388.493C152.782 383.766 149.473 378.103 148.693 372.335C147.918 366.59 149.691 361.028 153.114 356.57C159.961 347.653 173.47 343.002 187.506 349.21L185.494 353.79C173.53 348.498 162.497 352.562 157.073 359.626C154.36 363.159 153.067 367.406 153.642 371.668C154.215 375.907 156.676 380.448 162.009 384.507L158.991 388.493ZM187.814 349.373C197.084 355.131 200.911 365.704 200.274 377.31C199.637 388.92 194.56 401.91 185.587 413.337C167.555 436.298 133.651 453.149 87.342 440.414L88.6584 435.586C133.013 447.784 164.859 431.634 181.662 410.238C190.105 399.486 194.716 387.457 195.288 377.03C195.86 366.6 192.416 358.119 185.186 353.627L187.814 349.373Z" fill="#629076"/>
</svg>
