<svg width="291" height="227" viewBox="0 0 291 227" fill="none" xmlns="http://www.w3.org/2000/svg">
<path d="M264.261 0.725807C263.281 -0.246914 261.699 -0.24111 260.726 0.738774C259.753 1.71866 259.759 3.30156 260.739 4.27428L264.261 0.725807ZM288.158 55.6262L290.647 55.8685L288.158 55.6262ZM213.562 87.8529L211.505 89.2745L213.562 87.8529ZM95.6535 165.888L96.7254 163.629L95.6535 165.888ZM38.294 225.897L23.3303 201.211L9.43305 226.513L38.294 225.897ZM260.739 4.27428C271.477 14.934 278.088 23.5672 281.83 31.5744C285.537 39.5051 286.491 46.9529 285.67 55.3839L290.647 55.8685C291.542 46.6731 290.497 38.3079 286.36 29.4572C282.259 20.683 275.182 11.5663 264.261 0.725807L260.739 4.27428ZM285.67 55.3839C281.843 94.682 260.403 116.468 236.706 125.63C212.744 134.894 186.732 131.21 173.706 119.883L170.425 123.656C185.227 136.527 213.341 140.024 238.509 130.294C263.942 120.46 286.634 97.0752 290.647 55.8685L285.67 55.3839ZM173.706 119.883C167.362 114.366 165.131 107.621 165.608 101.099C166.092 94.4933 169.372 88.005 174.263 83.2827C179.15 78.5639 185.462 75.7748 191.913 76.2102C198.293 76.6408 205.273 80.2588 211.505 89.2745L215.618 86.4313C208.715 76.4444 200.461 71.7758 192.25 71.2215C184.109 70.672 176.471 74.1999 170.79 79.6858C165.112 85.1683 161.205 92.7726 160.622 100.734C160.033 108.778 162.855 117.073 170.425 123.656L173.706 119.883ZM211.505 89.2745C217.068 97.3211 218.114 108.312 214.965 119.96C211.823 131.586 204.553 143.613 193.914 153.386C172.731 172.846 138.24 183.332 96.7254 163.629L94.5816 168.146C137.981 188.744 174.651 177.872 197.297 157.068C208.572 146.709 216.383 133.878 219.792 121.265C223.195 108.673 222.262 96.043 215.618 86.4313L211.505 89.2745ZM96.7254 163.629C59.6846 146.05 28.8486 150.089 12.4842 163.523C4.28855 170.251 -0.252319 179.367 0.228059 189.1C0.708114 198.826 6.17601 208.699 17.051 217.049L20.0959 213.083C10.0802 205.393 5.61267 196.769 5.22198 188.853C4.83161 180.944 8.48462 173.275 15.6567 167.387C30.0277 155.59 58.6226 151.08 94.5816 168.146L96.7254 163.629Z" fill="#629076"/>
</svg>
