<svg width="130" height="262" viewBox="0 0 130 262" fill="none" xmlns="http://www.w3.org/2000/svg">
<path d="M1.01436 3.74747C0.591325 2.43325 1.31391 1.02494 2.62831 0.601938C3.94271 0.178935 5.35118 0.901408 5.77422 2.21563L1.01436 3.74747ZM112.151 83.7239L113.756 85.6406L112.151 83.7239ZM120.301 146.303L117.945 147.14L120.301 146.303ZM70.1027 258.453L87.1237 235.138L98.8071 261.534L70.1027 258.453ZM5.77422 2.21563C13.2614 25.4754 36.5208 48.0614 59.9466 63.5258C71.6073 71.2236 83.1392 77.0421 92.502 80.2393C97.192 81.8408 101.238 82.7499 104.43 82.9503C107.717 83.1567 109.619 82.5832 110.547 81.8071L113.756 85.6406C111.339 87.6644 107.818 88.1726 104.116 87.9401C100.318 87.7017 95.8078 86.6514 90.8859 84.9706C81.0246 81.6033 69.11 75.5661 57.1915 67.6982C33.4589 52.0312 9.02911 28.6462 1.01436 3.74747L5.77422 2.21563ZM110.547 81.8071C112.719 79.9881 113.209 77.1054 111.665 73.0333C110.123 68.9652 106.727 64.4036 102.426 60.4777C98.1292 56.5562 93.1711 53.4906 88.7146 52.2008C84.2496 50.9086 80.8609 51.5092 78.6984 53.9372L74.9642 50.6123C78.939 46.1493 84.7062 45.8358 90.105 47.3983C95.5122 48.9632 101.125 52.5214 105.797 56.785C110.463 61.0441 114.433 66.229 116.341 71.2609C118.247 76.2889 118.273 81.8599 113.756 85.6406L110.547 81.8071ZM78.6984 53.9372C76.6839 56.1991 76.4102 59.2341 78.332 64.1954C80.2688 69.1955 84.1407 75.3354 89.1721 83.0068C99.1325 98.1937 113.122 118.636 122.657 145.466L117.945 147.14C108.644 120.968 95.0037 101.016 84.9906 85.7486C80.0352 78.1929 75.8345 71.591 73.6692 66.0012C71.4888 60.3725 71.0835 54.9696 74.9642 50.6123L78.6984 53.9372ZM122.657 145.466C125.972 154.793 130.882 173.777 128.714 194.176C126.534 214.68 117.175 236.676 91.9419 251.505L89.4083 247.194C112.994 233.334 121.691 212.931 123.741 193.647C125.803 174.257 121.117 156.063 117.945 147.14L122.657 145.466Z" fill="#629076"/>
</svg>
