<svg width="591" height="736" viewBox="0 0 591 736" fill="none" xmlns="http://www.w3.org/2000/svg">
<path d="M338.783 32.4599C340.142 33.4082 342.012 33.0755 342.96 31.7168C343.908 30.3581 343.575 28.488 342.217 27.5397L338.783 32.4599ZM11.9998 155L14.9172 155.699L11.9998 155ZM95 338L95 335L95 338ZM77.5 295L75.9189 292.451L77.5 295ZM195 558L197.99 557.763L195 558ZM145.5 548.5L142.77 547.256L145.5 548.5ZM591 716.5L559.953 701.134L562.169 735.704L591 716.5ZM342.217 27.5397C293.098 -6.74075 217.322 -6.49388 150.464 17.6787C83.5789 41.8613 24.3891 90.435 9.08241 154.301L14.9172 155.699C29.5692 94.5649 86.6293 47.1386 152.504 23.3212C218.407 -0.506323 291.901 -0.25959 338.783 32.4599L342.217 27.5397ZM9.08241 154.301C-6.02129 217.319 1.39045 263.923 19.7469 294.904C38.1076 325.893 67.3021 341 95 341L95 335C69.5312 335 42.2463 321.107 24.9089 291.846C7.56724 262.577 0.0622118 217.68 14.9172 155.699L9.08241 154.301ZM95 341C109.003 341 118.661 336.116 124.075 328.739C129.443 321.425 130.278 312.134 127.598 304.044C124.912 295.939 118.631 288.824 109.507 285.91C100.349 282.984 88.8334 284.441 75.9189 292.451L79.0812 297.549C90.9167 290.209 100.61 289.366 107.681 291.625C114.786 293.895 119.755 299.449 121.902 305.931C124.055 312.429 123.307 319.644 119.238 325.189C115.214 330.671 107.58 335 95 335L95 341ZM75.9189 292.451C62.5647 300.733 54.036 309.988 49.6587 320.161C45.269 330.362 45.2019 341.143 48.1426 352.172C53.9631 374.001 71.7452 397.403 92.485 420.923C113.486 444.739 137.408 468.571 156.872 492.168C176.328 515.755 190.414 538.098 192.009 558.237L197.99 557.763C196.233 535.57 180.954 511.934 161.501 488.35C142.055 464.775 117.521 440.243 96.9853 416.954C76.1884 393.37 59.3529 370.927 53.94 350.626C51.264 340.59 51.4263 331.233 55.1701 322.533C58.9264 313.803 66.4353 305.392 79.0812 297.549L75.9189 292.451ZM192.009 558.237C192.959 570.226 189.546 576.865 185.005 580.178C180.344 583.579 173.643 584.114 166.798 582.064C159.983 580.022 153.558 575.552 149.764 569.782C146.04 564.116 144.829 557.204 148.229 549.744L142.77 547.256C138.421 556.796 140.022 565.884 144.751 573.078C149.411 580.166 157.079 585.415 165.076 587.811C173.044 590.198 181.874 589.89 188.541 585.025C195.329 580.073 199.041 571.024 197.99 557.763L192.009 558.237ZM148.229 549.744C150.124 545.588 154.161 541.915 160.371 538.908C166.561 535.91 174.647 533.707 184.162 532.354C203.181 529.649 227.4 530.407 252.323 534.51C277.234 538.61 302.678 546.024 324.159 556.511C345.695 567.025 362.932 580.474 371.882 596.465L377.118 593.535C367.318 576.026 348.846 561.887 326.792 551.12C304.683 540.326 278.658 532.764 253.297 528.589C227.948 524.417 203.094 523.6 183.317 526.414C173.433 527.82 164.69 530.15 157.756 533.508C150.841 536.857 145.457 541.362 142.77 547.256L148.229 549.744ZM371.882 596.465C406.421 658.175 470.3 721.261 564.057 721.227L564.055 715.227C473.338 715.26 411.101 654.251 377.118 593.535L371.882 596.465Z" fill="#629076"/>
</svg>
