<?xml version="1.0" encoding="UTF-8" standalone="no"?>
<!DOCTYPE svg PUBLIC "-//W3C//DTD SVG 1.1//EN" "http://www.w3.org/Graphics/SVG/1.1/DTD/svg11.dtd">
<svg width="100%" height="100%" viewBox="0 0 4550 3428" version="1.1" xmlns="http://www.w3.org/2000/svg" xmlns:xlink="http://www.w3.org/1999/xlink" xml:space="preserve" xmlns:serif="http://www.serif.com/" style="fill-rule:evenodd;clip-rule:evenodd;stroke-linecap:round;stroke-linejoin:round;stroke-miterlimit:1.5;">
    <g>
        <path d="M779.744,29.465c964.785,-3.614 3237.38,-12.798 3237.38,-12.798l1.701,41.154l-97.909,0.831c-0.36,103.351 -1.796,514.693 -3.312,948.77l13.726,18.437l9.362,-2.937l-0.184,-17.99l17.377,-4.773l4.589,17.806l3.304,19.642l-21.844,18.541l-2.754,-10.28l-10.464,-1.911l0,54.672l-13.438,2.328l-0.556,159.206l11.786,-23.299l12.558,-2.203l6.242,21.077l-5.197,23.074l-16.046,23.865l-2.57,33.043l-7.037,-0.112l-1.566,448.58l575.618,446.699l-39.626,1.202l-228.83,-178.115l-272.085,105.081l29.259,225.281l-29.57,-0.269l-23.34,-215.878l-12.784,4.937l-0.055,16.016l-34.382,1.81l-0,-20.323l-235.614,-101.602c13.369,124.977 35.06,267.524 68.687,313.051c76.239,103.217 838.586,654.399 820.773,656.944c-38.371,5.48 -2409.86,17.756 -3876.33,25.199m3267.84,-913.249l-10.505,-97.166l-0.356,101.969l10.861,-4.803Zm269.24,-119.071l-278.911,-217.096l-0.249,71.442l33.054,254.494l246.106,-108.84Zm-314.599,124.564l-0.002,-350.791l-2.023,-1.59l-242.221,175.033c1.694,19.641 3.631,40.805 5.831,62.817l238.415,114.531Zm-0.002,-373.182l-0.003,-448.269l-1.824,-0.029l-11.381,-10.28l-1.188,-47.427l-15.236,2.937l-4.039,-8.995l33.668,-32.623l-0.007,-1179.59l-329.98,2.802c0,-0 47.251,1408.58 78.345,1823.63c1.182,15.782 2.781,37.554 4.862,63.273l210.753,-151.119l36.03,-14.309Z" style="fill:none;stroke:#365243;stroke-width:33.33px;"/>
        <g>
            <path d="M748.433,937.889l280.172,-318.11l481.432,-371.177c65.23,95.452 200.01,129.501 338.293,160.456c-40.696,247.282 -6.475,466.007 118.232,650.239c-165.41,279.808 -243.764,555.916 -235.549,828.344c-189.085,81.692 -342.102,188.253 -440.28,332.63c-123.254,-122.668 -240.949,-223.004 -336.325,-233.684l-242.967,-690.604c137.699,-103.862 157.927,-222.249 36.992,-358.094Z" style="fill:none;stroke:#365243;stroke-width:33.33px;"/>
            <path d="M711.441,1295.98l4.152,1551.65l364.55,-83.002l-365.712,-350.948l-0.179,-67.091l68.922,13.095l-8.576,51.538l610.263,600.01l-35.255,38.4l-235.179,-232.711l-362.794,92.658l-43.831,-10.105l-70.51,88.328l-36.598,407.418l-40.019,15.157l-20.009,-35.368l45.529,-473.938l-285.681,-72.757l-222.965,256.672l-60.882,-3.031l8.575,-46.484l576.296,-689.765l30.491,-9.094l16.584,-1052.69l62.828,12.061Z" style="fill:none;stroke:#365243;stroke-width:33.33px;"/>
            <path d="M336.753,2772.28l300.535,-351.892l-28.411,418.819l-272.124,-66.927Z" style="fill:none;stroke:#365243;stroke-width:33.33px;"/>
            <path d="M726.378,2440.14l-8.576,401.5l342.565,-84.025l-333.989,-317.475Z" style="fill:none;stroke:#365243;stroke-width:33.33px;"/>
            <path d="M748.433,937.889l-304.768,-29.344c24.037,80.634 5.632,145.19 -44.97,197.549l204.97,23.943l28.029,149.518l86.991,31.129" style="fill:none;stroke:#365243;stroke-width:33.33px;"/>
            <path d="M433.34,909.954c22.911,4.306 34.125,52.001 25.027,106.441c-9.098,54.441 -35.084,95.144 -57.995,90.837c-22.91,-4.306 -34.124,-52.001 -25.026,-106.441c9.097,-54.441 35.084,-95.144 57.994,-90.837Z" style="fill:none;stroke:#365243;stroke-width:33.33px;"/>
            <g>
                <path d="M959.506,1255.32l312.051,276.411l333.288,239.809" style="fill:none;stroke:#365243;stroke-width:33.33px;"/>
                <path d="M994.638,1085.45l839.673,-41.361" style="fill:none;stroke:#365243;stroke-width:33.33px;"/>
                <path d="M927.785,951.177l371.614,-253.882l434.265,-199.714" style="fill:none;stroke:#365243;stroke-width:33.33px;"/>
                <path d="M867.471,1438.34l314.229,491.003" style="fill:none;stroke:#365243;stroke-width:33.33px;"/>
            </g>
        </g>
    </g>
</svg>
