<?xml version="1.0" encoding="UTF-8" standalone="no"?>
<!DOCTYPE svg PUBLIC "-//W3C//DTD SVG 1.1//EN" "http://www.w3.org/Graphics/SVG/1.1/DTD/svg11.dtd">
<svg width="100%" height="100%" viewBox="0 0 4213 3033" version="1.1" xmlns="http://www.w3.org/2000/svg" xmlns:xlink="http://www.w3.org/1999/xlink" xml:space="preserve" xmlns:serif="http://www.serif.com/" style="fill-rule:evenodd;clip-rule:evenodd;stroke-linecap:round;stroke-linejoin:round;stroke-miterlimit:1.5;">
    <g>
        <g>
            <path d="M1237.62,1600.08l-2.259,-56.727l17.415,-76.962l337.668,-76.415l36.237,34.473l11.776,80.011l-4.876,-129.235l25.318,-12.37l-7.484,-33.638l108.639,-25.618l4.037,28.604l38.637,9.494l32.231,117.279l-33.223,-142.886l214.222,-25.311l26.362,112.391" style="fill:none;stroke:#365243;stroke-width:33.33px;"/>
            <path d="M3074.66,1119.95l-15.18,-84.572l325.77,-73.041l52.23,116.219" style="fill:none;stroke:#365243;stroke-width:33.33px;"/>
            <path d="M2994.94,2656.16c-296.087,16.645 -567.14,-187.079 -626.437,-486.227c-64.885,-327.344 148.198,-645.785 475.542,-710.671c36.218,-7.179 72.327,-10.955 107.995,-11.551" style="fill:none;stroke:#365243;stroke-width:33.33px;"/>
            <path d="M2233.94,1371.94c-39.15,556.549 -44.557,1077.46 308.104,1318.57" style="fill:none;stroke:#365243;stroke-width:33.33px;"/>
            <path d="M2077.28,1396.2l87.452,-159.215l323.003,-277.683" style="fill:none;stroke:#365243;stroke-width:33.33px;"/>
            <path d="M2843.8,2648.18l-217.814,19.631c-355.718,-292.684 -310.915,-824.772 -261.138,-1384.55l56.115,-114.07l56.556,-208.488l210.974,-50.979l266.429,138.335l112.675,71.342l130.532,230.813" style="fill:none;stroke:#365243;stroke-width:33.33px;"/>
            <path d="M2890.77,1618.89c69.624,-69.174 156.839,-118.202 256.332,-137.923c299.227,-59.313 596.92,168.784 664.366,509.047c67.447,340.263 -120.73,664.668 -419.958,723.98c-16.518,3.274 -33.032,5.673 -49.503,7.225" style="fill:none;stroke:#365243;stroke-width:33.33px;"/>
            <path d="M3262.11,1345.62c326.716,-64.761 653.02,190.67 728.22,570.05c75.2,379.38 -128.999,739.966 -455.714,804.727c-326.715,64.761 -653.019,-190.67 -728.219,-570.05c-75.2,-379.38 128.998,-739.966 455.713,-804.727Z" style="fill:none;stroke:#365243;stroke-width:33.33px;"/>
            <path d="M3471.01,2730.03c-17.49,5.429 -35.391,9.98 -53.676,13.604c-326.715,64.761 -653.019,-190.67 -728.219,-570.05c-75.2,-379.379 128.998,-739.965 455.714,-804.726c17.591,-3.487 35.181,-6.046 52.731,-7.707" style="fill:none;stroke:#365243;stroke-width:33.33px;"/>
            <path d="M1149.04,1626.44l270.294,1365.53l108.381,23.601l170.9,-34.88l1171.47,-329.522" style="fill:none;stroke:#365243;stroke-width:33.33px;"/>
            <path d="M3644.23,1411.5l-62.694,-321.559l-99.58,29.785l-2007.43,459.876l-239.332,44.426l-86.159,2.422l86.159,-2.422l292.516,1391.55l170.9,-34.88l47.497,-51.927l-271.581,-1349.17l2007.43,-459.876l49.242,242.742" style="fill:none;stroke:#365243;stroke-width:33.33px;"/>
            <path d="M2770.24,2625.59l-1024.13,303.171" style="fill:none;stroke:#365243;stroke-width:33.33px;"/>
            <path d="M1149.04,1626.44l2300.68,-545.14l129.684,8.121" style="fill:none;stroke:#365243;stroke-width:33.33px;"/>
        </g>
        <g id="Layer1">
            <path d="M1235.93,1852.41l-244.091,-78.738l19.684,177.165l224.407,-98.427Z" style="fill:none;stroke:#365243;stroke-width:33.33px;"/>
            <path d="M3593.27,1154.22l66.928,-188.974l137.793,173.225l-204.721,15.749Z" style="fill:none;stroke:#365243;stroke-width:33.33px;"/>
            <path d="M985.656,1776.57c-118.556,-479.348 -1023.19,-254.548 -966.429,-537.88c56.761,-283.332 809.173,-990.229 1307,-1162.11c497.823,-171.884 1232.11,75.088 1679.94,130.81c339.849,42.287 895.098,75.339 1007.05,203.525c111.95,128.185 -144.673,507.497 -335.346,565.59" style="fill:none;stroke:#365243;stroke-width:33.33px;"/>
            <path d="M3815.27,1137.97c195.644,-110.765 482.677,-428.771 344.125,-552.068c-3.968,-3.53 -8.348,-6.977 -13.123,-10.343" style="fill:none;stroke:#365243;stroke-width:33.33px;"/>
            <path d="M4036.91,527.595c-243.44,-73.484 -730.9,-94.049 -1052.96,-129.409c-458.258,-50.314 -1088.01,-295.926 -1574.11,-114.17c-428.22,160.114 -1092.68,757.628 -1289.88,1087.4" style="fill:none;stroke:#365243;stroke-width:33.33px;"/>
            <path d="M64.552,1537.25c33.586,197.936 699.295,0.707 950.027,412.097" style="fill:none;stroke:#365243;stroke-width:33.33px;"/>
            <path d="M64.048,1538.12l-44.135,-246.543" style="fill:none;stroke:#365243;stroke-width:33.33px;"/>
            <path d="M4001.29,400.108l138.95,168.519" style="fill:none;stroke:#365243;stroke-width:33.33px;"/>
        </g>
    </g>
</svg>
