<?xml version="1.0" encoding="UTF-8" standalone="no"?>
<!DOCTYPE svg PUBLIC "-//W3C//DTD SVG 1.1//EN" "http://www.w3.org/Graphics/SVG/1.1/DTD/svg11.dtd">
<svg width="100%" height="100%" viewBox="0 0 4772 3367" version="1.1" xmlns="http://www.w3.org/2000/svg" xmlns:xlink="http://www.w3.org/1999/xlink" xml:space="preserve" xmlns:serif="http://www.serif.com/" style="fill-rule:evenodd;clip-rule:evenodd;stroke-linecap:round;stroke-linejoin:round;stroke-miterlimit:1.5;">
    <g>
        <g>
            <path d="M4196.41,2006.84c79.448,287.902 168.084,685.929 92.514,811.221c-122.876,203.721 -790.916,199.182 -912.267,11.097c-75.036,-116.3 13.136,-524.494 91.37,-819.137" style="fill:none;stroke:#365243;stroke-width:33.33px;"/>
            <path d="M4433.32,124.531c74.669,85.059 413.094,1627.08 297.74,1777.62c-115.354,150.536 -1679.05,152.83 -1804.17,10.304c-125.116,-142.526 181.557,-1714.17 243.696,-1787.92c62.139,-73.75 1188.06,-85.059 1262.73,0Z" style="fill:none;stroke:#365243;stroke-width:33.33px;"/>
        </g>
        <g>
            <path d="M1118,2912.62c-38.904,5.123 -78.505,7.76 -118.665,7.76c-542.349,-0 -982.667,-480.862 -982.667,-1073.15c-0,-504.173 319.053,-927.608 748.503,-1042.44l-197.032,-788.127l842.367,-0l-195.827,783.31c438.916,107.337 767.324,535.743 767.324,1047.25c-0,94.26 -11.152,185.698 -32.093,272.824" style="fill:none;stroke:#365243;stroke-width:33.33px;"/>
        </g>
        <g>
            <path d="M3222.85,2463.89c-0,489.025 -504.919,885.458 -1127.77,885.458c-622.849,-0 -1127.77,-396.433 -1127.77,-885.458" style="fill:none;stroke:#365243;stroke-width:33.33px;"/>
            <ellipse cx="2093.47" cy="2465.85" rx="1128.87" ry="344.495" style="fill:none;stroke:#365243;stroke-width:33.33px;"/>
        </g>
    </g>
</svg>
