<svg width="337" height="173" viewBox="0 0 337 173" fill="none" xmlns="http://www.w3.org/2000/svg">
<path d="M-36.0847 171.925C-37.4135 172.3 -38.7944 171.526 -39.169 170.197C-39.5436 168.868 -38.7701 167.487 -37.4413 167.113L-36.0847 171.925ZM84.2979 18.3454L86.2721 16.8117L84.2979 18.3454ZM174.141 9.97538L174.891 12.3603L174.141 9.97538ZM331.761 87.5709L309.692 68.9628L336.84 59.1519L331.761 87.5709ZM-37.4413 167.113C-3.4583 157.531 30.2119 125.234 53.5801 92.5065C65.228 76.1937 74.1953 59.9403 79.294 46.6238C81.8466 39.9569 83.3913 34.1246 83.8576 29.4449C84.3334 24.6694 83.6403 21.5744 82.3236 19.8791L86.2721 16.8117C88.781 20.0422 89.3496 24.7521 88.8326 29.9408C88.3061 35.2252 86.6033 41.5163 83.9631 48.4119C78.6761 62.2204 69.4761 78.8484 57.6489 95.4124C34.0669 128.439 -0.444538 161.877 -36.0847 171.925L-37.4413 167.113ZM82.3236 19.8791C79.4354 16.1604 74.7606 15.3994 68.6532 17.4627C62.5498 19.5247 55.7159 24.2559 49.8068 30.2725C43.9023 36.2843 39.1516 43.3452 37.0088 49.8474C34.8634 56.3581 35.464 61.7401 39.2428 65.3622L35.7834 68.9723C30.0373 63.4645 29.8107 55.7161 32.2604 48.2822C34.7129 40.84 39.9798 33.1424 46.24 26.7685C52.4954 20.3993 59.9732 15.1173 67.0531 12.7254C74.129 10.3349 81.5092 10.6793 86.2721 16.8117L82.3236 19.8791ZM39.2428 65.3622C42.8047 68.7764 47.6408 69.1991 54.9757 66.6625C62.3499 64.1122 71.4275 58.8341 82.6267 52.0619C104.866 38.6138 134.699 19.7654 173.391 7.59048L174.891 12.3603C136.865 24.3257 107.535 42.8431 85.2136 56.3408C74.1328 63.0415 64.5816 68.6313 56.6096 71.3882C48.5984 74.1588 41.371 74.3281 35.7834 68.9723L39.2428 65.3622ZM173.391 7.59048C187.318 3.2079 216.15 -3.0802 246.206 2.05397C276.403 7.21226 307.821 23.9203 326.396 65.3835L321.833 67.428C304.051 27.7343 274.204 11.9094 245.364 6.98291C216.383 2.03226 188.406 8.10743 174.891 12.3603L173.391 7.59048Z" fill="#629076"/>
</svg>
