<svg width="226" height="372" viewBox="0 0 226 372" fill="none" xmlns="http://www.w3.org/2000/svg">
<path d="M225.588 2.54534C225.538 1.16391 224.38 0.0833124 223.002 0.131761C221.624 0.180209 220.547 1.33936 220.597 2.72079L225.588 2.54534ZM74.1924 204.352L74.594 206.823L74.7397 206.8L74.8816 206.759L74.1924 204.352ZM34.5768 183.983L32.9349 182.095L32.9349 182.095L34.5768 183.983ZM166.682 357.002L141.715 342.509L141.705 371.41L166.682 357.002ZM60.3434 166.699L58.1646 165.474L60.3434 166.699ZM74.8816 206.759C86.9226 203.31 94.68 196.647 98.2803 189.173C101.873 181.714 101.247 173.516 96.5844 167.6C91.8959 161.652 83.5461 158.52 72.7028 160.255C61.899 161.984 48.4669 168.532 32.9349 182.095L36.2187 185.871C51.3403 172.666 63.9372 166.728 73.4968 165.198C83.0169 163.675 89.3648 166.51 92.6672 170.7C95.9951 174.922 96.6534 181.03 93.7822 186.991C90.9185 192.937 84.4637 198.806 73.5032 201.946L74.8816 206.759ZM32.9349 182.095C-0.00230501 210.858 -7.76804 253.887 10.7323 290.436C29.2259 326.973 73.6543 356.527 144.117 359.464L144.317 354.463C75.1225 351.578 32.6421 322.664 15.1856 288.176C-2.26424 253.702 4.97853 213.152 36.2187 185.871L32.9349 182.095ZM58.1646 165.474C52.7849 175.095 51.1682 186.008 53.7235 194.326C55.0124 198.521 57.4015 202.152 61.0104 204.485C64.6361 206.828 69.2298 207.692 74.594 206.823L73.7908 201.882C69.4085 202.591 66.1152 201.832 63.7134 200.279C61.2948 198.716 59.5159 196.177 58.4965 192.858C56.4351 186.148 57.6404 176.656 62.5222 167.925L58.1646 165.474ZM220.597 2.72079C221.671 32.2672 214.26 53.2458 202.196 69.102C190.082 85.0238 173.119 95.9919 154.709 105.205C145.508 109.81 136.007 113.948 126.604 118.055C117.225 122.152 107.937 126.221 99.279 130.649C82 139.489 66.8481 149.944 58.1646 165.474L62.5222 167.925C70.466 153.718 84.5175 143.824 101.554 135.109C110.054 130.76 119.202 126.751 128.604 122.644C137.982 118.548 147.607 114.358 156.945 109.684C175.611 100.343 193.373 88.959 206.169 72.1408C219.015 55.257 226.699 33.1074 225.588 2.54534L220.597 2.72079Z" fill="#629076"/>
</svg>
