<svg width="311" height="255" viewBox="0 0 311 255" fill="none" xmlns="http://www.w3.org/2000/svg">
<path d="M239.382 0.541991C238.025 0.289995 236.72 1.1862 236.468 2.54372C236.216 3.90124 237.112 5.20601 238.469 5.45801L239.382 0.541991ZM304.956 122.5L302.53 121.897L304.956 122.5ZM226.456 143.5L224.215 144.606L226.456 143.5ZM98.4258 203.5L99.8157 201.422L98.4258 203.5ZM32.9258 254.5L21.7234 227.895L4.28376 250.899L32.9258 254.5ZM238.469 5.45801C244.912 6.654 253.138 10.6109 261.678 17.0199C270.182 23.4011 278.844 32.099 286.181 42.572C300.857 63.5195 310.113 91.3695 302.53 121.897L307.383 123.103C315.399 90.8305 305.557 61.5137 290.276 39.703C282.635 28.7968 273.604 19.7177 264.68 13.0207C255.792 6.35158 246.856 1.92934 239.382 0.541991L238.469 5.45801ZM302.53 121.897C293.011 160.217 268.622 178.642 243.842 184.249C218.785 189.919 193.589 182.479 182.355 169.373L178.558 172.627C191.324 187.52 218.627 195.081 244.946 189.126C271.541 183.108 297.401 163.283 307.383 123.103L302.53 121.897ZM182.355 169.373C176.883 162.989 175.66 155.991 177.084 149.609C178.526 143.145 182.717 137.204 188.245 133.246C193.768 129.29 200.42 127.452 206.738 128.824C212.987 130.18 219.364 134.778 224.215 144.606L228.698 142.394C223.325 131.506 215.841 125.684 207.798 123.938C199.825 122.206 191.754 124.582 185.333 129.181C178.916 133.776 173.942 140.729 172.204 148.52C170.447 156.392 172.03 165.01 178.558 172.627L182.355 169.373ZM224.215 144.606C228.544 153.378 227.975 164.404 223.161 175.468C218.357 186.511 209.409 197.349 197.459 205.466C173.664 221.627 138.012 226.97 99.8157 201.422L97.0359 205.578C136.966 232.286 174.83 226.88 200.268 209.602C212.934 200.999 222.533 189.445 227.746 177.463C232.95 165.503 233.869 152.872 228.698 142.394L224.215 144.606ZM99.8157 201.422C65.7357 178.627 34.6402 178.125 16.4912 189.028C7.40178 194.488 1.57958 202.844 0.635035 212.543C-0.308872 222.235 3.6602 232.801 13.2009 242.647L16.7918 239.168C8.0049 230.099 4.84328 220.916 5.61149 213.028C6.37906 205.146 11.1118 198.092 19.066 193.314C35.0043 183.739 63.9512 183.448 97.0359 205.578L99.8157 201.422Z" fill="#629076"/>
</svg>
