<?xml version="1.0" encoding="UTF-8" standalone="no"?>
<!DOCTYPE svg PUBLIC "-//W3C//DTD SVG 1.1//EN" "http://www.w3.org/Graphics/SVG/1.1/DTD/svg11.dtd">
<svg width="100%" height="100%" viewBox="0 0 2190 1858" version="1.1" xmlns="http://www.w3.org/2000/svg" xmlns:xlink="http://www.w3.org/1999/xlink" xml:space="preserve" xmlns:serif="http://www.serif.com/" style="fill-rule:evenodd;clip-rule:evenodd;stroke-linecap:round;stroke-linejoin:round;stroke-miterlimit:1.5;">
    <path d="M0,1750.06l623.282,-1373.94l35.19,15.428l-575.154,1358.51l-83.318,0Zm129.467,0l568.662,-1341.89l69.03,29.161l-481.201,1312.73l-156.491,0Z" style="fill:#fff;fill-opacity:0.26;"/>
    <g>
        <path d="M719.81,487.552c124.308,52.279 218.843,109.91 210.976,128.615c-7.866,18.705 -115.175,-8.554 -239.482,-60.833c-124.308,-52.28 -218.843,-109.91 -210.976,-128.615c7.867,-18.705 115.175,8.553 239.482,60.833Z" style="fill:#fff;stroke:#629076;stroke-width:16.67px;"/>
        <path d="M935.006,162.882l29.525,12.712l-35.553,439.377l-445.895,-190.157l319.115,-319.115l39.67,17.081l56.484,-77.103l21.641,9.359l72.689,-46.703l185.99,20.836l625.59,625.59l-0,1069.14c210.366,2.163 376.91,29.29 376.91,62.39c-0,34.51 -181.043,62.528 -404.037,62.528c-222.994,0 -404.037,-28.018 -404.037,-62.528c-0,-34.496 180.888,-62.505 403.751,-62.528l0,-1051.41l-621.19,-621.19l-157.036,-19.53l-52.426,34.735l16.206,7.009l-27.397,89.504Z" style="fill:#f1c2a6;stroke:#629076;stroke-width:16.67px;"/>
        <path d="M920.895,183.602c-5.203,-2.766 -12.077,-2.044 -17.445,1.527c-7.377,4.907 -7.826,18.34 -3.621,25.356c4.681,7.809 12.638,6.062 19.237,8.873c7.734,3.295 11.987,14.356 13.102,24.625c2.236,20.576 -8.879,82.972 -8.069,83.277c0.958,0.36 7.438,-31.878 9.517,-43.159c2.749,-14.92 5.534,-29.78 8.867,-44.565c2.298,-10.193 3.184,-26.139 -0.414,-35.461c-3.598,-9.322 -13.981,-16.648 -21.174,-20.473Z" style="fill:#fff;"/>
    </g>
</svg>
